<?xml version="1.0" encoding="UTF-8" standalone="no"?>
<!-- Created with Inkscape (http://www.inkscape.org/) -->

<svg
   xmlns:dc="http://purl.org/dc/elements/1.1/"
   xmlns:cc="http://creativecommons.org/ns#"
   xmlns:rdf="http://www.w3.org/1999/02/22-rdf-syntax-ns#"
   xmlns:svg="http://www.w3.org/2000/svg"
   xmlns="http://www.w3.org/2000/svg"
   xmlns:sodipodi="http://sodipodi.sourceforge.net/DTD/sodipodi-0.dtd"
   xmlns:inkscape="http://www.inkscape.org/namespaces/inkscape"
   width="1049.9933mm"
   height="149.99754mm"
   viewBox="0 0 1049.9933 149.99754"
   version="1.1"
   id="svg10899"
   inkscape:version="0.92.1 r15371"
   sodipodi:docname="CA - Calha Aerea.svg">
  <defs
     id="defs10893">
    <clipPath
       id="clipPath11460"
       clipPathUnits="userSpaceOnUse">
      <path
         inkscape:connector-curvature="0"
         id="path11458"
         d="m 32098,5547 h 14173 v 99212 H 32098 V 5547" />
    </clipPath>
  </defs>
  <sodipodi:namedview
     id="base"
     pagecolor="#ffffff"
     bordercolor="#666666"
     borderopacity="1.0"
     inkscape:pageopacity="0.0"
     inkscape:pageshadow="2"
     inkscape:zoom="0.22320722"
     inkscape:cx="1984.2628"
     inkscape:cy="283.44336"
     inkscape:document-units="mm"
     inkscape:current-layer="layer1"
     showgrid="false"
     inkscape:window-width="1366"
     inkscape:window-height="706"
     inkscape:window-x="1912"
     inkscape:window-y="-8"
     inkscape:window-maximized="1" />
  <metadata
     id="metadata10896">
    <rdf:RDF>
      <cc:Work
         rdf:about="">
        <dc:format>image/svg+xml</dc:format>
        <dc:type
           rdf:resource="http://purl.org/dc/dcmitype/StillImage" />
        <dc:title></dc:title>
      </cc:Work>
    </rdf:RDF>
  </metadata>
  <g
     inkscape:label="Camada 1"
     inkscape:groupmode="layer"
     id="layer1"
     transform="translate(351.88358,53.921382)">
    <path
       d="m 82.551536,47.085919 v -1.005416 h -1.248833 v 1.005416 h 1.248833"
       style="fill:none;stroke:#000000;stroke-width:0.25399992;stroke-linecap:round;stroke-linejoin:round;stroke-miterlimit:10;stroke-dasharray:none;stroke-opacity:1"
       id="path11462"
       inkscape:connector-curvature="0" />
    <path
       d="m 80.297286,47.085919 v -1.005416 h -1.248833 v 1.005416 h 1.248833"
       style="fill:none;stroke:#000000;stroke-width:0.25399992;stroke-linecap:round;stroke-linejoin:round;stroke-miterlimit:10;stroke-dasharray:none;stroke-opacity:1"
       id="path11464"
       inkscape:connector-curvature="0" />
    <path
       d="m 84.795202,-20.911976 v 66.992479 h -1.248833 v 1.005416 h 1.248833 v -1.005416"
       style="fill:none;stroke:#000000;stroke-width:0.25399992;stroke-linecap:round;stroke-linejoin:round;stroke-miterlimit:10;stroke-dasharray:none;stroke-opacity:1"
       id="path11466"
       inkscape:connector-curvature="0" />
    <path
       d="m 84.795202,47.085919 v 2.995082 h -1.248833 v 1.005417 h 1.248833 v -1.005417"
       style="fill:none;stroke:#000000;stroke-width:0.25399992;stroke-linecap:round;stroke-linejoin:round;stroke-miterlimit:10;stroke-dasharray:none;stroke-opacity:1"
       id="path11468"
       inkscape:connector-curvature="0" />
    <path
       d="M 84.795202,51.086418 V 54.0815"
       style="fill:none;stroke:#000000;stroke-width:0.25399992;stroke-linecap:round;stroke-linejoin:round;stroke-miterlimit:10;stroke-dasharray:none;stroke-opacity:1"
       id="path11470"
       inkscape:connector-curvature="0" />
    <path
       d="m 434.79651,54.0815 h -0.99483 v 12.001496 h -6.00075 V 54.0815 h -1.00542 v -2.995082 h 1.24883 v -1.005417 h -1.24883 v -2.995082 h 1.24883 v -1.005416 h -1.24883 V 30.184341"
       style="fill:none;stroke:#000000;stroke-width:0.25399992;stroke-linecap:round;stroke-linejoin:round;stroke-miterlimit:10;stroke-dasharray:none;stroke-opacity:1"
       id="path11472"
       inkscape:connector-curvature="0" />
    <path
       d="M 76.794204,30.184341 V 26.183842"
       style="fill:none;stroke:#000000;stroke-width:0.25399992;stroke-linecap:round;stroke-linejoin:round;stroke-miterlimit:10;stroke-dasharray:none;stroke-opacity:1"
       id="path11474"
       inkscape:connector-curvature="0" />
    <path
       d="M 76.794204,25.189009 V 20.183094"
       style="fill:none;stroke:#000000;stroke-width:0.25399992;stroke-linecap:round;stroke-linejoin:round;stroke-miterlimit:10;stroke-dasharray:none;stroke-opacity:1"
       id="path11476"
       inkscape:connector-curvature="0" />
    <path
       d="M 92.796199,-53.910799 V 46.080503"
       style="fill:none;stroke:#000000;stroke-width:0.25399992;stroke-linecap:round;stroke-linejoin:round;stroke-miterlimit:10;stroke-dasharray:none;stroke-opacity:1"
       id="path11478"
       inkscape:connector-curvature="0" />
    <path
       d="M 100.7972,-53.910799 V 46.080503"
       style="fill:none;stroke:#000000;stroke-width:0.25399992;stroke-linecap:round;stroke-linejoin:round;stroke-miterlimit:10;stroke-dasharray:none;stroke-opacity:1"
       id="path11480"
       inkscape:connector-curvature="0" />
    <path
       d="M 108.79819,-53.910799 V 46.080503"
       style="fill:none;stroke:#000000;stroke-width:0.25399992;stroke-linecap:round;stroke-linejoin:round;stroke-miterlimit:10;stroke-dasharray:none;stroke-opacity:1"
       id="path11482"
       inkscape:connector-curvature="0" />
    <path
       d="M 116.79919,-53.910799 V 46.080503"
       style="fill:none;stroke:#000000;stroke-width:0.25399992;stroke-linecap:round;stroke-linejoin:round;stroke-miterlimit:10;stroke-dasharray:none;stroke-opacity:1"
       id="path11484"
       inkscape:connector-curvature="0" />
    <path
       d="M 124.80019,-53.910799 V 46.080503"
       style="fill:none;stroke:#000000;stroke-width:0.25399992;stroke-linecap:round;stroke-linejoin:round;stroke-miterlimit:10;stroke-dasharray:none;stroke-opacity:1"
       id="path11486"
       inkscape:connector-curvature="0" />
    <path
       d="m 140.80218,45.08567 h -1.00541 v -98.001636 h 1.00541 V 45.08567"
       style="fill:none;stroke:#000000;stroke-width:0.25399992;stroke-linecap:round;stroke-linejoin:round;stroke-miterlimit:10;stroke-dasharray:none;stroke-opacity:1"
       id="path11488"
       inkscape:connector-curvature="0" />
    <path
       d="m 141.79702,-28.669557 h 1.00541 v 24.2569923 h -1.00541 V -28.669557"
       style="fill:none;stroke:#000000;stroke-width:0.25399992;stroke-linecap:round;stroke-linejoin:round;stroke-miterlimit:10;stroke-dasharray:none;stroke-opacity:1"
       id="path11490"
       inkscape:connector-curvature="0" />
    <path
       d="m 141.79702,-3.4177317 h 1.00541 V 20.828677 h -1.00541 V -3.4177317"
       style="fill:none;stroke:#000000;stroke-width:0.25399992;stroke-linecap:round;stroke-linejoin:round;stroke-miterlimit:10;stroke-dasharray:none;stroke-opacity:1"
       id="path11492"
       inkscape:connector-curvature="0" />
    <path
       d="m 144.80268,45.08567 h -1.00541 v -98.001636 h 1.00541 V 45.08567"
       style="fill:none;stroke:#000000;stroke-width:0.25399992;stroke-linecap:round;stroke-linejoin:round;stroke-miterlimit:10;stroke-dasharray:none;stroke-opacity:1"
       id="path11494"
       inkscape:connector-curvature="0" />
    <path
       d="m 145.79752,-28.669557 h 1.00541 v 24.2569923 h -1.00541 V -28.669557"
       style="fill:none;stroke:#000000;stroke-width:0.25399992;stroke-linecap:round;stroke-linejoin:round;stroke-miterlimit:10;stroke-dasharray:none;stroke-opacity:1"
       id="path11496"
       inkscape:connector-curvature="0" />
    <path
       d="m 145.79752,-3.4177317 h 1.00541 V 20.828677 h -1.00541 V -3.4177317"
       style="fill:none;stroke:#000000;stroke-width:0.25399992;stroke-linecap:round;stroke-linejoin:round;stroke-miterlimit:10;stroke-dasharray:none;stroke-opacity:1"
       id="path11498"
       inkscape:connector-curvature="0" />
    <path
       d="m 148.80318,45.08567 h -1.00541 v -98.001636 h 1.00541 V 45.08567"
       style="fill:none;stroke:#000000;stroke-width:0.25399992;stroke-linecap:round;stroke-linejoin:round;stroke-miterlimit:10;stroke-dasharray:none;stroke-opacity:1"
       id="path11500"
       inkscape:connector-curvature="0" />
    <path
       d="m 149.79801,-28.669557 h 1.00542 v 24.2569923 h -1.00542 V -28.669557"
       style="fill:none;stroke:#000000;stroke-width:0.25399992;stroke-linecap:round;stroke-linejoin:round;stroke-miterlimit:10;stroke-dasharray:none;stroke-opacity:1"
       id="path11502"
       inkscape:connector-curvature="0" />
    <path
       d="m 149.79801,-3.4177317 h 1.00542 V 20.828677 h -1.00542 V -3.4177317"
       style="fill:none;stroke:#000000;stroke-width:0.25399992;stroke-linecap:round;stroke-linejoin:round;stroke-miterlimit:10;stroke-dasharray:none;stroke-opacity:1"
       id="path11504"
       inkscape:connector-curvature="0" />
    <path
       d="m 152.7931,45.08567 h -0.99484 v -98.001636 h 0.99484 V 45.08567"
       style="fill:none;stroke:#000000;stroke-width:0.25399992;stroke-linecap:round;stroke-linejoin:round;stroke-miterlimit:10;stroke-dasharray:none;stroke-opacity:1"
       id="path11506"
       inkscape:connector-curvature="0" />
    <path
       d="m 153.79851,-28.669557 h 0.99484 v 24.2569923 h -0.99484 V -28.669557"
       style="fill:none;stroke:#000000;stroke-width:0.25399992;stroke-linecap:round;stroke-linejoin:round;stroke-miterlimit:10;stroke-dasharray:none;stroke-opacity:1"
       id="path11508"
       inkscape:connector-curvature="0" />
    <path
       d="m 153.79851,-3.4177317 h 0.99484 V 20.828677 h -0.99484 V -3.4177317"
       style="fill:none;stroke:#000000;stroke-width:0.25399992;stroke-linecap:round;stroke-linejoin:round;stroke-miterlimit:10;stroke-dasharray:none;stroke-opacity:1"
       id="path11510"
       inkscape:connector-curvature="0" />
    <path
       d="m 156.7936,45.08567 h -0.99484 v -98.001636 h 0.99484 V 45.08567"
       style="fill:none;stroke:#000000;stroke-width:0.25399992;stroke-linecap:round;stroke-linejoin:round;stroke-miterlimit:10;stroke-dasharray:none;stroke-opacity:1"
       id="path11512"
       inkscape:connector-curvature="0" />
    <path
       d="m 157.79901,-28.669557 h 0.99484 v 24.2569923 h -0.99484 V -28.669557"
       style="fill:none;stroke:#000000;stroke-width:0.25399992;stroke-linecap:round;stroke-linejoin:round;stroke-miterlimit:10;stroke-dasharray:none;stroke-opacity:1"
       id="path11514"
       inkscape:connector-curvature="0" />
    <path
       d="m 157.79901,-3.4177317 h 0.99484 V 20.828677 h -0.99484 V -3.4177317"
       style="fill:none;stroke:#000000;stroke-width:0.25399992;stroke-linecap:round;stroke-linejoin:round;stroke-miterlimit:10;stroke-dasharray:none;stroke-opacity:1"
       id="path11516"
       inkscape:connector-curvature="0" />
    <path
       d="m 160.79409,45.08567 h -0.99483 v -98.001636 h 0.99483 V 45.08567"
       style="fill:none;stroke:#000000;stroke-width:0.25399992;stroke-linecap:round;stroke-linejoin:round;stroke-miterlimit:10;stroke-dasharray:none;stroke-opacity:1"
       id="path11518"
       inkscape:connector-curvature="0" />
    <path
       d="m 161.79951,-28.669557 h 0.99483 v 24.2569923 h -0.99483 V -28.669557"
       style="fill:none;stroke:#000000;stroke-width:0.25399992;stroke-linecap:round;stroke-linejoin:round;stroke-miterlimit:10;stroke-dasharray:none;stroke-opacity:1"
       id="path11520"
       inkscape:connector-curvature="0" />
    <path
       d="m 161.79951,-3.4177317 h 0.99483 V 20.828677 h -0.99483 V -3.4177317"
       style="fill:none;stroke:#000000;stroke-width:0.25399992;stroke-linecap:round;stroke-linejoin:round;stroke-miterlimit:10;stroke-dasharray:none;stroke-opacity:1"
       id="path11522"
       inkscape:connector-curvature="0" />
    <path
       d="m 164.79459,45.08567 h -0.99483 v -98.001636 h 0.99483 V 45.08567"
       style="fill:none;stroke:#000000;stroke-width:0.25399992;stroke-linecap:round;stroke-linejoin:round;stroke-miterlimit:10;stroke-dasharray:none;stroke-opacity:1"
       id="path11524"
       inkscape:connector-curvature="0" />
    <path
       d="m 187.80275,45.08567 h 0.99484 v -98.001636 h -0.99484 V 45.08567"
       style="fill:none;stroke:#000000;stroke-width:0.25399992;stroke-linecap:round;stroke-linejoin:round;stroke-miterlimit:10;stroke-dasharray:none;stroke-opacity:1"
       id="path11526"
       inkscape:connector-curvature="0" />
    <path
       d="m 186.79734,-28.669557 h -0.99484 v 24.2569923 h 0.99484 V -28.669557"
       style="fill:none;stroke:#000000;stroke-width:0.25399992;stroke-linecap:round;stroke-linejoin:round;stroke-miterlimit:10;stroke-dasharray:none;stroke-opacity:1"
       id="path11528"
       inkscape:connector-curvature="0" />
    <path
       d="M 186.79734,-3.4177317 H 185.8025 V 20.828677 h 0.99484 V -3.4177317"
       style="fill:none;stroke:#000000;stroke-width:0.25399992;stroke-linecap:round;stroke-linejoin:round;stroke-miterlimit:10;stroke-dasharray:none;stroke-opacity:1"
       id="path11530"
       inkscape:connector-curvature="0" />
    <path
       d="m 183.80225,45.08567 h 0.99484 v -98.001636 h -0.99484 V 45.08567"
       style="fill:none;stroke:#000000;stroke-width:0.25399992;stroke-linecap:round;stroke-linejoin:round;stroke-miterlimit:10;stroke-dasharray:none;stroke-opacity:1"
       id="path11532"
       inkscape:connector-curvature="0" />
    <path
       d="M 182.79684,-28.669557 H 181.802 v 24.2569923 h 0.99484 V -28.669557"
       style="fill:none;stroke:#000000;stroke-width:0.25399992;stroke-linecap:round;stroke-linejoin:round;stroke-miterlimit:10;stroke-dasharray:none;stroke-opacity:1"
       id="path11534"
       inkscape:connector-curvature="0" />
    <path
       d="M 182.79684,-3.4177317 H 181.802 V 20.828677 h 0.99484 V -3.4177317"
       style="fill:none;stroke:#000000;stroke-width:0.25399992;stroke-linecap:round;stroke-linejoin:round;stroke-miterlimit:10;stroke-dasharray:none;stroke-opacity:1"
       id="path11536"
       inkscape:connector-curvature="0" />
    <path
       d="m 179.80176,45.08567 h 0.99483 v -98.001636 h -0.99483 V 45.08567"
       style="fill:none;stroke:#000000;stroke-width:0.25399992;stroke-linecap:round;stroke-linejoin:round;stroke-miterlimit:10;stroke-dasharray:none;stroke-opacity:1"
       id="path11538"
       inkscape:connector-curvature="0" />
    <path
       d="m 178.79634,-28.669557 h -0.99483 v 24.2569923 h 0.99483 V -28.669557"
       style="fill:none;stroke:#000000;stroke-width:0.25399992;stroke-linecap:round;stroke-linejoin:round;stroke-miterlimit:10;stroke-dasharray:none;stroke-opacity:1"
       id="path11540"
       inkscape:connector-curvature="0" />
    <path
       d="m 178.79634,-3.4177317 h -0.99483 V 20.828677 h 0.99483 V -3.4177317"
       style="fill:none;stroke:#000000;stroke-width:0.25399992;stroke-linecap:round;stroke-linejoin:round;stroke-miterlimit:10;stroke-dasharray:none;stroke-opacity:1"
       id="path11542"
       inkscape:connector-curvature="0" />
    <path
       d="m 175.80126,45.08567 h 0.99483 v -98.001636 h -0.99483 V 45.08567"
       style="fill:none;stroke:#000000;stroke-width:0.25399992;stroke-linecap:round;stroke-linejoin:round;stroke-miterlimit:10;stroke-dasharray:none;stroke-opacity:1"
       id="path11544"
       inkscape:connector-curvature="0" />
    <path
       d="m 174.79584,-28.669557 h -0.99483 v 24.2569923 h 0.99483 V -28.669557"
       style="fill:none;stroke:#000000;stroke-width:0.25399992;stroke-linecap:round;stroke-linejoin:round;stroke-miterlimit:10;stroke-dasharray:none;stroke-opacity:1"
       id="path11546"
       inkscape:connector-curvature="0" />
    <path
       d="m 174.79584,-3.4177317 h -0.99483 V 20.828677 h 0.99483 V -3.4177317"
       style="fill:none;stroke:#000000;stroke-width:0.25399992;stroke-linecap:round;stroke-linejoin:round;stroke-miterlimit:10;stroke-dasharray:none;stroke-opacity:1"
       id="path11548"
       inkscape:connector-curvature="0" />
    <path
       d="m 171.80076,45.08567 h 0.99483 v -98.001636 h -0.99483 V 45.08567"
       style="fill:none;stroke:#000000;stroke-width:0.25399992;stroke-linecap:round;stroke-linejoin:round;stroke-miterlimit:10;stroke-dasharray:none;stroke-opacity:1"
       id="path11550"
       inkscape:connector-curvature="0" />
    <path
       d="m 170.79534,-28.669557 h -0.99483 v 24.2569923 h 0.99483 V -28.669557"
       style="fill:none;stroke:#000000;stroke-width:0.25399992;stroke-linecap:round;stroke-linejoin:round;stroke-miterlimit:10;stroke-dasharray:none;stroke-opacity:1"
       id="path11552"
       inkscape:connector-curvature="0" />
    <path
       d="m 170.79534,-3.4177317 h -0.99483 V 20.828677 h 0.99483 V -3.4177317"
       style="fill:none;stroke:#000000;stroke-width:0.25399992;stroke-linecap:round;stroke-linejoin:round;stroke-miterlimit:10;stroke-dasharray:none;stroke-opacity:1"
       id="path11554"
       inkscape:connector-curvature="0" />
    <path
       d="m 167.80026,45.08567 h 0.99483 v -98.001636 h -0.99483 V 45.08567"
       style="fill:none;stroke:#000000;stroke-width:0.25399992;stroke-linecap:round;stroke-linejoin:round;stroke-miterlimit:10;stroke-dasharray:none;stroke-opacity:1"
       id="path11556"
       inkscape:connector-curvature="0" />
    <path
       d="m 166.79484,-28.669557 h -0.99483 v 24.2569923 h 0.99483 V -28.669557"
       style="fill:none;stroke:#000000;stroke-width:0.25399992;stroke-linecap:round;stroke-linejoin:round;stroke-miterlimit:10;stroke-dasharray:none;stroke-opacity:1"
       id="path11558"
       inkscape:connector-curvature="0" />
    <path
       d="m 166.79484,-3.4177317 h -0.99483 V 20.828677 h 0.99483 V -3.4177317"
       style="fill:none;stroke:#000000;stroke-width:0.25399992;stroke-linecap:round;stroke-linejoin:round;stroke-miterlimit:10;stroke-dasharray:none;stroke-opacity:1"
       id="path11560"
       inkscape:connector-curvature="0" />
    <path
       d="m 221.79641,24.681009 h 8.001 v 2.995083 h -8.001 v -2.995083"
       style="fill:none;stroke:#000000;stroke-width:0.25399992;stroke-linecap:round;stroke-linejoin:round;stroke-miterlimit:10;stroke-dasharray:none;stroke-opacity:1"
       id="path11562"
       inkscape:connector-curvature="0" />
    <path
       d="m 201.20125,4.0858493 v -8.0009975 h -2.99508 v 8.0009975 h 2.99508"
       style="fill:none;stroke:#000000;stroke-width:0.25399992;stroke-linecap:round;stroke-linejoin:round;stroke-miterlimit:10;stroke-dasharray:none;stroke-opacity:1"
       id="path11564"
       inkscape:connector-curvature="0" />
    <path
       d="m 250.39257,4.0858493 v -8.0009975 h 3.00566 v 8.0009975 h -3.00566"
       style="fill:none;stroke:#000000;stroke-width:0.25399992;stroke-linecap:round;stroke-linejoin:round;stroke-miterlimit:10;stroke-dasharray:none;stroke-opacity:1"
       id="path11566"
       inkscape:connector-curvature="0" />
    <path
       d="m 245.39723,-7.9156469 v -8.0009971 h 2.99509 v 8.0009971 h -2.99509"
       style="fill:none;stroke:#000000;stroke-width:0.25399992;stroke-linecap:round;stroke-linejoin:round;stroke-miterlimit:10;stroke-dasharray:none;stroke-opacity:1"
       id="path11568"
       inkscape:connector-curvature="0" />
    <path
       d="m 245.39723,-19.917143 v -8.000998 h 2.99509 v 8.000998 h -2.99509"
       style="fill:none;stroke:#000000;stroke-width:0.25399992;stroke-linecap:round;stroke-linejoin:round;stroke-miterlimit:10;stroke-dasharray:none;stroke-opacity:1"
       id="path11570"
       inkscape:connector-curvature="0" />
    <path
       d="m 245.39723,-31.918639 v -8.000998 h 2.99509 v 8.000998 h -2.99509"
       style="fill:none;stroke:#000000;stroke-width:0.25399992;stroke-linecap:round;stroke-linejoin:round;stroke-miterlimit:10;stroke-dasharray:none;stroke-opacity:1"
       id="path11572"
       inkscape:connector-curvature="0" />
    <path
       d="m 245.39723,-43.920136 v -8.000997 h 2.99509 v 8.000997 h -2.99509"
       style="fill:none;stroke:#000000;stroke-width:0.25399992;stroke-linecap:round;stroke-linejoin:round;stroke-miterlimit:10;stroke-dasharray:none;stroke-opacity:1"
       id="path11574"
       inkscape:connector-curvature="0" />
    <path
       d="M 248.57223,0.08535056 V 3.0804329"
       style="fill:none;stroke:#000000;stroke-width:0.25399992;stroke-linecap:round;stroke-linejoin:round;stroke-miterlimit:10;stroke-dasharray:none;stroke-opacity:1"
       id="path11576"
       inkscape:connector-curvature="0" />
    <path
       d="m 203.0172,3.0798509 c 1.50531,11.4283451 11.24735,19.9713261 22.77442,19.9713261 11.52706,0 21.2691,-8.542981 22.77441,-19.9713261"
       style="fill:none;stroke:#000000;stroke-width:0.25399992;stroke-linecap:round;stroke-linejoin:round;stroke-miterlimit:10;stroke-dasharray:none;stroke-opacity:1"
       id="path11578"
       inkscape:connector-curvature="0" />
    <path
       d="M 203.02158,3.0804329 V 0.08535056 h 3.00567 V 3.0804329 h 2.00025 V -9.0903966"
       style="fill:none;stroke:#000000;stroke-width:0.25399992;stroke-linecap:round;stroke-linejoin:round;stroke-miterlimit:10;stroke-dasharray:none;stroke-opacity:1"
       id="path11580"
       inkscape:connector-curvature="0" />
    <path
       d="m 243.56305,-9.0885762 c -3.43106,-6.6503848 -10.28811,-10.8285668 -17.77143,-10.8285668 -7.48333,0 -14.34037,4.178182 -17.77144,10.8285668"
       style="fill:none;stroke:#000000;stroke-width:0.25399992;stroke-linecap:round;stroke-linejoin:round;stroke-miterlimit:10;stroke-dasharray:none;stroke-opacity:1"
       id="path11582"
       inkscape:connector-curvature="0" />
    <path
       d="M 243.56632,-9.0903966 V 3.0804329 h 2.00025 V 0.08535056 h 3.00566"
       style="fill:none;stroke:#000000;stroke-width:0.25399992;stroke-linecap:round;stroke-linejoin:round;stroke-miterlimit:10;stroke-dasharray:none;stroke-opacity:1"
       id="path11584"
       inkscape:connector-curvature="0" />
    <path
       d="m 281.79331,24.681009 h 8.00099 v 2.995083 h -8.00099 v -2.995083"
       style="fill:none;stroke:#000000;stroke-width:0.25399992;stroke-linecap:round;stroke-linejoin:round;stroke-miterlimit:10;stroke-dasharray:none;stroke-opacity:1"
       id="path11586"
       inkscape:connector-curvature="0" />
    <path
       d="m 261.19815,4.0858493 v -8.0009975 h -2.99509 v 8.0009975 h 2.99509"
       style="fill:none;stroke:#000000;stroke-width:0.25399992;stroke-linecap:round;stroke-linejoin:round;stroke-miterlimit:10;stroke-dasharray:none;stroke-opacity:1"
       id="path11588"
       inkscape:connector-curvature="0" />
    <path
       d="m 310.38946,4.0858493 v -8.0009975 h 3.00567 v 8.0009975 h -3.00567"
       style="fill:none;stroke:#000000;stroke-width:0.25399992;stroke-linecap:round;stroke-linejoin:round;stroke-miterlimit:10;stroke-dasharray:none;stroke-opacity:1"
       id="path11590"
       inkscape:connector-curvature="0" />
    <path
       d="m 305.39413,-7.9156469 v -8.0009971 h 2.99508 v 8.0009971 h -2.99508"
       style="fill:none;stroke:#000000;stroke-width:0.25399992;stroke-linecap:round;stroke-linejoin:round;stroke-miterlimit:10;stroke-dasharray:none;stroke-opacity:1"
       id="path11592"
       inkscape:connector-curvature="0" />
    <path
       d="m 305.39413,-19.917143 v -8.000998 h 2.99508 v 8.000998 h -2.99508"
       style="fill:none;stroke:#000000;stroke-width:0.25399992;stroke-linecap:round;stroke-linejoin:round;stroke-miterlimit:10;stroke-dasharray:none;stroke-opacity:1"
       id="path11594"
       inkscape:connector-curvature="0" />
    <path
       d="m 305.39413,-31.918639 v -8.000998 h 2.99508 v 8.000998 h -2.99508"
       style="fill:none;stroke:#000000;stroke-width:0.25399992;stroke-linecap:round;stroke-linejoin:round;stroke-miterlimit:10;stroke-dasharray:none;stroke-opacity:1"
       id="path11596"
       inkscape:connector-curvature="0" />
    <path
       d="m 305.39413,-43.920136 v -8.000997 h 2.99508 v 8.000997 h -2.99508"
       style="fill:none;stroke:#000000;stroke-width:0.25399992;stroke-linecap:round;stroke-linejoin:round;stroke-miterlimit:10;stroke-dasharray:none;stroke-opacity:1"
       id="path11598"
       inkscape:connector-curvature="0" />
    <path
       d="M 308.56913,0.08535056 V 3.0804329"
       style="fill:none;stroke:#000000;stroke-width:0.25399992;stroke-linecap:round;stroke-linejoin:round;stroke-miterlimit:10;stroke-dasharray:none;stroke-opacity:1"
       id="path11600"
       inkscape:connector-curvature="0" />
    <path
       d="m 263.0141,3.0798509 c 1.50531,11.4283451 11.24735,19.9713261 22.77441,19.9713261 11.52707,0 21.26911,-8.542981 22.77442,-19.9713261"
       style="fill:none;stroke:#000000;stroke-width:0.25399992;stroke-linecap:round;stroke-linejoin:round;stroke-miterlimit:10;stroke-dasharray:none;stroke-opacity:1"
       id="path11602"
       inkscape:connector-curvature="0" />
    <path
       d="M 263.02906,3.0804329 V 0.08535056 h 2.99508 V 3.0804329 h 2.00025 V -9.0903966"
       style="fill:none;stroke:#000000;stroke-width:0.25399992;stroke-linecap:round;stroke-linejoin:round;stroke-miterlimit:10;stroke-dasharray:none;stroke-opacity:1"
       id="path11604"
       inkscape:connector-curvature="0" />
    <path
       d="m 303.55995,-9.0885762 c -3.43107,-6.6503848 -10.28811,-10.8285668 -17.77144,-10.8285668 -7.48332,0 -14.34037,4.178182 -17.77143,10.8285668"
       style="fill:none;stroke:#000000;stroke-width:0.25399992;stroke-linecap:round;stroke-linejoin:round;stroke-miterlimit:10;stroke-dasharray:none;stroke-opacity:1"
       id="path11606"
       inkscape:connector-curvature="0" />
    <path
       d="M 303.5738,-9.0903966 V 3.0804329 h 2.00025 V 0.08535056 h 2.99508"
       style="fill:none;stroke:#000000;stroke-width:0.25399992;stroke-linecap:round;stroke-linejoin:round;stroke-miterlimit:10;stroke-dasharray:none;stroke-opacity:1"
       id="path11608"
       inkscape:connector-curvature="0" />
    <path
       d="m -88.972494,-49.169467 h -0.984249 l 0.28575,-0.22225 0.04233,-0.05292 0.03175,-0.03175 0.05292,-0.04233 0.05292,-0.05292 0.07408,-0.0635 0.04233,-0.02117 0.0635,-0.0635 0.05292,-0.05292 0.05292,-0.04233 0.04233,-0.04233 0.03175,-0.04233 h 0.01058 l 0.04233,-0.0635 0.04233,-0.0635 0.03175,-0.05292 0.01058,-0.04233 0.02117,-0.0635 v -0.07408 -0.05292 l -0.01058,-0.0635 -0.03175,-0.0635 -0.03175,-0.0635 -0.05292,-0.05292 -0.01058,-0.01058 -0.05292,-0.04233 -0.0635,-0.02117 -0.0635,-0.02117 -0.07408,-0.02117 h -0.07408 -0.02117 l -0.07408,0.01058 -0.07408,0.01058 -0.0635,0.02117 -0.05292,0.03175 -0.05292,0.03175 -0.01058,0.01058 -0.04233,0.05292 -0.03175,0.05292 -0.03175,0.0635 -0.02117,0.07408 -0.01058,0.07408"
       style="fill:none;stroke:#000000;stroke-width:0.25399992;stroke-linecap:round;stroke-linejoin:round;stroke-miterlimit:10;stroke-dasharray:none;stroke-opacity:1"
       id="path11610"
       inkscape:connector-curvature="0" />
    <path
       d="m -90.126077,-50.25955 -0.02117,-0.04233 -0.02117,-0.0635 -0.04233,-0.0635 -0.03175,-0.05292 -0.05292,-0.05292 -0.05292,-0.04233 -0.03175,-0.03175 -0.0635,-0.03175 -0.0635,-0.02117 -0.0635,-0.02117 h -0.07408 l -0.07408,-0.01058 h -0.03175 l -0.07408,0.01058 -0.0635,0.01058 -0.07408,0.01058 -0.0635,0.03175 -0.0635,0.03175 -0.01058,0.01058 -0.0635,0.03175 -0.05292,0.05292 -0.04233,0.04233 -0.04233,0.0635 -0.04233,0.0635 -0.02117,0.05292 -0.02117,0.0635 -0.02117,0.07408 -0.01058,0.0635 -0.01058,0.07408 v 0.07408 0.0635 l 0.01058,0.07408 0.01058,0.07408 0.01058,0.0635 0.02117,0.0635 0.02117,0.0635 0.01058,0.03175 0.04233,0.0635 0.03175,0.05292 0.04233,0.05292 0.05292,0.05292 0.05292,0.03175 0.05292,0.03175 0.05292,0.02117 0.0635,0.02117 0.07408,0.02117 h 0.07408 l 0.07408,0.01058 h 0.01058 l 0.07408,-0.01058 0.07408,-0.01058 0.0635,-0.01058 0.0635,-0.03175 0.0635,-0.03175 0.05292,-0.03175 0.02117,-0.02117 0.04233,-0.04233 0.04233,-0.05292 0.03175,-0.05292 0.03175,-0.0635 0.03175,-0.07408 0.02117,-0.07408"
       style="fill:none;stroke:#000000;stroke-width:0.25399992;stroke-linecap:round;stroke-linejoin:round;stroke-miterlimit:10;stroke-dasharray:none;stroke-opacity:1"
       id="path11612"
       inkscape:connector-curvature="0" />
    <path
       d="m -148.96939,-49.169467 h -0.98425 l 0.28575,-0.22225 0.0423,-0.05292 0.0318,-0.03175 0.0423,-0.04233 0.0635,-0.05292 0.0741,-0.0635 0.0318,-0.02117 0.0741,-0.0635 0.0529,-0.05292 0.0529,-0.04233 0.0423,-0.04233 0.0317,-0.04233 h 0.0106 l 0.0423,-0.0635 0.0423,-0.0635 0.0318,-0.05292 0.0106,-0.04233 0.0106,-0.0635 0.0106,-0.07408 v -0.05292 l -0.0212,-0.0635 -0.0212,-0.0635 -0.0318,-0.0635 -0.0529,-0.05292 -0.0106,-0.01058 -0.0529,-0.04233 -0.0635,-0.02117 -0.0635,-0.02117 -0.0741,-0.02117 h -0.0741 -0.0212 l -0.0741,0.01058 -0.0741,0.01058 -0.0635,0.02117 -0.0529,0.03175 -0.0529,0.03175 -0.0106,0.01058 -0.0423,0.05292 -0.0423,0.05292 -0.0212,0.0635 -0.0212,0.07408 -0.0106,0.07408"
       style="fill:none;stroke:#000000;stroke-width:0.25399992;stroke-linecap:round;stroke-linejoin:round;stroke-miterlimit:10;stroke-dasharray:none;stroke-opacity:1"
       id="path11614"
       inkscape:connector-curvature="0" />
    <path
       d="m -150.13356,-50.25955 -0.0106,-0.04233 -0.0318,-0.0635 -0.0317,-0.0635 -0.0423,-0.05292 -0.0423,-0.05292 -0.0529,-0.04233 -0.0423,-0.03175 -0.0529,-0.03175 -0.0635,-0.02117 -0.0741,-0.02117 h -0.0635 l -0.0847,-0.01058 h -0.0212 l -0.0741,0.01058 -0.0635,0.01058 -0.0741,0.01058 -0.0635,0.03175 -0.0635,0.03175 -0.0212,0.01058 -0.0529,0.03175 -0.0529,0.05292 -0.0529,0.04233 -0.0317,0.0635 -0.0423,0.0635 -0.0212,0.05292 -0.0317,0.0635 -0.0106,0.07408 -0.0106,0.0635 -0.0106,0.07408 v 0.07408 0.0635 0.07408 l 0.0106,0.07408 0.0212,0.0635 0.0212,0.0635 0.0212,0.0635 0.0106,0.03175 0.0317,0.0635 0.0423,0.05292 0.0423,0.05292 0.0529,0.05292 0.0529,0.03175 0.0529,0.03175 0.0529,0.02117 0.0635,0.02117 0.0741,0.02117 h 0.0741 l 0.0741,0.01058 h 0.0106 l 0.0741,-0.01058 0.0741,-0.01058 0.0635,-0.01058 0.0635,-0.03175 0.0529,-0.03175 0.0635,-0.03175 0.0106,-0.02117 0.0529,-0.04233 0.0423,-0.05292 0.0317,-0.05292 0.0318,-0.0635 0.0317,-0.07408 0.0212,-0.07408"
       style="fill:none;stroke:#000000;stroke-width:0.25399992;stroke-linecap:round;stroke-linejoin:round;stroke-miterlimit:10;stroke-dasharray:none;stroke-opacity:1"
       id="path11616"
       inkscape:connector-curvature="0" />
    <path
       d="m -211.97195,-49.169467 h -0.98425 l 0.28575,-0.22225 0.0423,-0.05292 0.0317,-0.03175 0.0529,-0.04233 0.0529,-0.05292 0.0741,-0.0635 0.0423,-0.02117 0.0635,-0.0635 0.0529,-0.05292 0.0529,-0.04233 0.0423,-0.04233 0.0318,-0.04233 h 0.0106 l 0.0423,-0.0635 0.0423,-0.0635 0.0317,-0.05292 0.0106,-0.04233 0.0212,-0.0635 v -0.07408 -0.05292 l -0.0106,-0.0635 -0.0317,-0.0635 -0.0318,-0.0635 -0.0529,-0.05292 -0.0106,-0.01058 -0.0529,-0.04233 -0.0635,-0.02117 -0.0635,-0.02117 -0.0741,-0.02117 h -0.0741 -0.0212 l -0.0741,0.01058 -0.0741,0.01058 -0.0635,0.02117 -0.0529,0.03175 -0.0529,0.03175 -0.0106,0.01058 -0.0423,0.05292 -0.0318,0.05292 -0.0317,0.0635 -0.0212,0.07408 -0.0106,0.07408"
       style="fill:none;stroke:#000000;stroke-width:0.25399992;stroke-linecap:round;stroke-linejoin:round;stroke-miterlimit:10;stroke-dasharray:none;stroke-opacity:1"
       id="path11618"
       inkscape:connector-curvature="0" />
    <path
       d="m -213.12554,-50.25955 -0.0212,-0.04233 -0.0212,-0.0635 -0.0423,-0.0635 -0.0318,-0.05292 -0.0529,-0.05292 -0.0529,-0.04233 -0.0317,-0.03175 -0.0635,-0.03175 -0.0635,-0.02117 -0.0635,-0.02117 h -0.0741 l -0.0741,-0.01058 h -0.0318 l -0.0741,0.01058 -0.0635,0.01058 -0.0741,0.01058 -0.0635,0.03175 -0.0529,0.03175 -0.0212,0.01058 -0.0635,0.03175 -0.0529,0.05292 -0.0423,0.04233 -0.0423,0.0635 -0.0423,0.0635 -0.0212,0.05292 -0.0212,0.0635 -0.0212,0.07408 -0.0106,0.0635 -0.0106,0.07408 v 0.07408 0.0635 l 0.0106,0.07408 0.0106,0.07408 0.0106,0.0635 0.0212,0.0635 0.0317,0.0635 v 0.03175 l 0.0423,0.0635 0.0317,0.05292 0.0423,0.05292 0.0529,0.05292 0.0529,0.03175 0.0529,0.03175 0.0529,0.02117 0.0635,0.02117 0.0741,0.02117 h 0.0741 l 0.0847,0.01058 0.0741,-0.01058 0.0741,-0.01058 0.0635,-0.01058 0.0635,-0.03175 0.0635,-0.03175 0.0529,-0.03175 0.0212,-0.02117 0.0423,-0.04233 0.0423,-0.05292 0.0317,-0.05292 0.0318,-0.0635 0.0317,-0.07408 0.0212,-0.07408"
       style="fill:none;stroke:#000000;stroke-width:0.25399992;stroke-linecap:round;stroke-linejoin:round;stroke-miterlimit:10;stroke-dasharray:none;stroke-opacity:1"
       id="path11620"
       inkscape:connector-curvature="0" />
    <path
       d="m 77.799621,44.080253 h 6.000748 v 1.005417 h -6.000748 v -1.005417"
       style="fill:none;stroke:#000000;stroke-width:0.25399992;stroke-linecap:round;stroke-linejoin:round;stroke-miterlimit:10;stroke-dasharray:none;stroke-opacity:1"
       id="path11622"
       inkscape:connector-curvature="0" />
    <path
       d="m 77.799621,48.080752 h 6.000748 v 1.005416 h -6.000748 v -1.005416"
       style="fill:none;stroke:#000000;stroke-width:0.25399992;stroke-linecap:round;stroke-linejoin:round;stroke-miterlimit:10;stroke-dasharray:none;stroke-opacity:1"
       id="path11624"
       inkscape:connector-curvature="0" />
    <path
       d="m 82.297536,60.082248 v 2.995083 h -2.995083 v -2.995083 h 2.995083"
       style="fill:none;stroke:#000000;stroke-width:0.25399992;stroke-linecap:round;stroke-linejoin:round;stroke-miterlimit:10;stroke-dasharray:none;stroke-opacity:1"
       id="path11626"
       inkscape:connector-curvature="0" />
    <path
       d="m 82.551536,51.086418 v -1.005417 h -1.248833 v 1.005417 h 1.248833"
       style="fill:none;stroke:#000000;stroke-width:0.25399992;stroke-linecap:round;stroke-linejoin:round;stroke-miterlimit:10;stroke-dasharray:none;stroke-opacity:1"
       id="path11628"
       inkscape:connector-curvature="0" />
    <path
       d="m 80.297286,51.086418 v -1.005417 h -1.248833 v 1.005417 h 1.248833"
       style="fill:none;stroke:#000000;stroke-width:0.25399992;stroke-linecap:round;stroke-linejoin:round;stroke-miterlimit:10;stroke-dasharray:none;stroke-opacity:1"
       id="path11630"
       inkscape:connector-curvature="0" />
    <path
       d="m 77.799621,52.081251 h 6.000748 v 1.005416 h -6.000748 v -1.005416"
       style="fill:none;stroke:#000000;stroke-width:0.25399992;stroke-linecap:round;stroke-linejoin:round;stroke-miterlimit:10;stroke-dasharray:none;stroke-opacity:1"
       id="path11632"
       inkscape:connector-curvature="0" />
    <path
       d="M 132.80119,-53.910799 V 46.080503"
       style="fill:none;stroke:#000000;stroke-width:0.25399992;stroke-linecap:round;stroke-linejoin:round;stroke-miterlimit:10;stroke-dasharray:none;stroke-opacity:1"
       id="path11634"
       inkscape:connector-curvature="0" />
    <path
       d="M 426.79551,30.184341 H 414.2331 v 6.000748 h 2.99508 v 6.000748 h -6.00075 v -6.000748 -6.000748 h -47.25457 v 6.000748 h 2.99509 v 6.000748 h -6.00075 v -6.000748 -6.000748 h -9.55675 v -4.000499 h 8.39258 v -0.994833 h -8.39258 v -5.005915 -36.205572 h 4.99533 v -4.995331 h -4.99533 v -10.90083 h -3.29141 v -4.995332 h 8.39258 v -1.005416 h -8.39258 v -4.000499 h 12.56241 v -6.000748 h -2.99508 v -5.990165 h 6.00074 v 5.990165 6.000748 h 47.25457 v -6.000748 h -2.99508 v -5.990165 h 6.00075 v 5.990165 6.000748 h 9.55674 v 4.000499 h -8.39258 v 1.005416 h 8.39258 v 4.995332 36.2055716 h -4.99533 v 5.0059151 h 4.99533 V 20.183094 h 3.29142 v -41.09507 h 1.50283 v -3.005666 h -1.50283 v -29.993157 h 8.001 57.00181 v 24.246409 h 0.99484 v -24.246409 h 3.00566 v 24.246409 h 0.99484 v -24.246409 h 3.00566 v 24.246409 h 0.99483 v -24.246409 h 3.00567 v 24.246409 h 0.99483 v -24.246409 h 3.00567 v 24.246409 h 0.99483 v -24.246409 h 3.00567 v 24.246409 h 0.99483 v -24.246409 h 2.99508 v 24.246409 h 1.00542 v -24.246409 h 2.99508 v 24.246409 h 1.00542 v -24.246409 h 2.99508 v 24.246409 h 1.00542 v -24.246409 h 2.99508 v 24.246409 h 1.00542 v -24.246409 h 2.99508 v 24.246409 h 1.00541 v -24.246409 h 2.99509 v 24.246409 h 1.00541 V -53.910799 H 665.79885 V 0.08535056"
       style="fill:none;stroke:#000000;stroke-width:0.25399992;stroke-linecap:round;stroke-linejoin:round;stroke-miterlimit:10;stroke-dasharray:none;stroke-opacity:1"
       id="path11636"
       inkscape:connector-curvature="0" />
    <path
       d="m 605.79137,0.08005889 c 0,16.56770611 13.43077,29.99844911 29.99845,29.99844911 16.56769,0 29.99845,-13.430743 29.99845,-29.99844911"
       style="fill:none;stroke:#000000;stroke-width:0.25399992;stroke-linecap:round;stroke-linejoin:round;stroke-miterlimit:10;stroke-dasharray:none;stroke-opacity:1"
       id="path11638"
       inkscape:connector-curvature="0" />
    <path
       d="m 545.79447,0.08005889 c 0,16.56770611 13.43077,29.99844911 29.99845,29.99844911 16.56769,0 29.99845,-13.430743 29.99845,-29.99844911"
       style="fill:none;stroke:#000000;stroke-width:0.25399992;stroke-linecap:round;stroke-linejoin:round;stroke-miterlimit:10;stroke-dasharray:none;stroke-opacity:1"
       id="path11640"
       inkscape:connector-curvature="0" />
    <path
       d="M 545.79447,0.08535056 V 46.080503 h -8.99583 V 21.834094 h -1.00541 v 24.246409 h -2.99509 V 21.834094 h -1.00541 v 24.246409 h -2.99508 V 21.834094 h -1.00542 v 24.246409 h -2.99508 V 21.834094 h -1.00542 v 24.246409 h -2.99508 V 21.834094 h -1.00542 v 24.246409 h -2.99508 V 21.834094 h -1.00542 v 24.246409 h -2.99508 V 21.834094 h -0.99483 v 24.246409 h -3.00567 V 21.834094 h -0.99483 v 24.246409 h -3.00567 V 21.834094 h -0.99483 v 24.246409 h -3.00567 V 21.834094 h -0.99483 v 24.246409 h -3.00566 V 21.834094 h -0.99484 v 24.246409 h -3.00566 V 21.834094 h -0.99484 v 24.246409 h -1.93675 V 56.08175 H 479.86033 V 51.086418 H 474.865 v 4.995332 h -25.07191 v -4.995332 h -4.99534 V 56.08175 H 434.79651 V 54.0815"
       style="fill:none;stroke:#000000;stroke-width:0.25399992;stroke-linecap:round;stroke-linejoin:round;stroke-miterlimit:10;stroke-dasharray:none;stroke-opacity:1"
       id="path11642"
       inkscape:connector-curvature="0" />
    <path
       d="M 44.525631,-5.8624809 H 63.512125 V 13.11343 L 44.525631,-5.8624809"
       style="fill:none;stroke:#000000;stroke-width:0.25399992;stroke-linecap:round;stroke-linejoin:round;stroke-miterlimit:10;stroke-dasharray:none;stroke-opacity:1"
       id="path11644"
       inkscape:connector-curvature="0" />
    <path
       d="M 37.455967,-12.932145 18.480056,-31.918639 h 18.975911 v 18.986494"
       style="fill:none;stroke:#000000;stroke-width:0.25399992;stroke-linecap:round;stroke-linejoin:round;stroke-miterlimit:10;stroke-dasharray:none;stroke-opacity:1"
       id="path11646"
       inkscape:connector-curvature="0" />
    <path
       d="M 63.512125,-12.932145 44.525631,-31.918639 h 18.986494 v 18.986494"
       style="fill:none;stroke:#000000;stroke-width:0.25399992;stroke-linecap:round;stroke-linejoin:round;stroke-miterlimit:10;stroke-dasharray:none;stroke-opacity:1"
       id="path11648"
       inkscape:connector-curvature="0" />
    <path
       d="m 42.461882,-26.912724 v 16.044328 H 58.50621 L 42.461882,-26.912724"
       style="fill:none;stroke:#000000;stroke-width:0.25399992;stroke-linecap:round;stroke-linejoin:round;stroke-miterlimit:10;stroke-dasharray:none;stroke-opacity:1"
       id="path11650"
       inkscape:connector-curvature="0" />
    <path
       d="m 0.11797833,-39.919637 v 1.005417 H 71.513123 v -1.005417 H 0.11797833"
       style="fill:none;stroke:#000000;stroke-width:0.25399992;stroke-linecap:round;stroke-linejoin:round;stroke-miterlimit:10;stroke-dasharray:none;stroke-opacity:1"
       id="path11652"
       inkscape:connector-curvature="0" />
    <path
       d="m 0.11797833,-35.919138 v 1.005416 H 71.513123 v -1.005416 H 0.11797833"
       style="fill:none;stroke:#000000;stroke-width:0.25399992;stroke-linecap:round;stroke-linejoin:round;stroke-miterlimit:10;stroke-dasharray:none;stroke-opacity:1"
       id="path11654"
       inkscape:connector-curvature="0" />
    <path
       d="m 51.711712,-37.919387 v 1.005416 h 8.403164 v -1.005416 h -8.403164"
       style="fill:none;stroke:#000000;stroke-width:0.25399992;stroke-linecap:round;stroke-linejoin:round;stroke-miterlimit:10;stroke-dasharray:none;stroke-opacity:1"
       id="path11656"
       inkscape:connector-curvature="0" />
    <path
       d="m 38.313216,-37.919387 v 1.005416 h 8.403164 v -1.005416 h -8.403164"
       style="fill:none;stroke:#000000;stroke-width:0.25399992;stroke-linecap:round;stroke-linejoin:round;stroke-miterlimit:10;stroke-dasharray:none;stroke-opacity:1"
       id="path11658"
       inkscape:connector-curvature="0" />
    <path
       d="m 19.919389,-37.919387 v 1.005416 h -8.403164 v -1.005416 h 8.403164"
       style="fill:none;stroke:#000000;stroke-width:0.25399992;stroke-linecap:round;stroke-linejoin:round;stroke-miterlimit:10;stroke-dasharray:none;stroke-opacity:1"
       id="path11660"
       inkscape:connector-curvature="0" />
    <path
       d="m 33.317885,-37.919387 v 1.005416 h -8.403164 v -1.005416 h 8.403164"
       style="fill:none;stroke:#000000;stroke-width:0.25399992;stroke-linecap:round;stroke-linejoin:round;stroke-miterlimit:10;stroke-dasharray:none;stroke-opacity:1"
       id="path11662"
       inkscape:connector-curvature="0" />
    <path
       d="m -219.97295,-49.148301 h -0.98425 l 0.28575,-0.22225 0.0423,-0.0635 0.0317,-0.03175 0.0529,-0.03175 0.0529,-0.05292 0.0741,-0.0635 0.0423,-0.03175 0.0635,-0.0635 0.0529,-0.04233 0.0529,-0.05292 0.0423,-0.04233 0.0318,-0.03175 0.0106,-0.01058 0.0423,-0.0635 0.0423,-0.05292 0.0317,-0.0635 0.0106,-0.03175 0.0212,-0.07408 v -0.0635 -0.0635 l -0.0106,-0.0635 -0.0317,-0.0635 -0.0318,-0.0635 -0.0529,-0.05292 -0.0106,-0.01058 -0.0529,-0.03175 -0.0635,-0.03175 -0.0635,-0.02117 -0.0741,-0.01058 -0.0741,-0.01058 h -0.0212 l -0.0741,0.01058 -0.0741,0.01058 -0.0635,0.02117 -0.0529,0.03175 -0.0529,0.04233 -0.0106,0.01058 -0.0423,0.04233 -0.0318,0.05292 -0.0317,0.0635 -0.0212,0.07408 -0.0106,0.07408"
       style="fill:none;stroke:#000000;stroke-width:0.25399992;stroke-linecap:round;stroke-linejoin:round;stroke-miterlimit:10;stroke-dasharray:none;stroke-opacity:1"
       id="path11664"
       inkscape:connector-curvature="0" />
    <path
       d="m -221.12654,-50.238384 -0.0212,-0.05292 -0.0212,-0.0635 -0.0423,-0.0635 -0.0318,-0.05292 -0.0529,-0.05292 -0.0529,-0.04233 -0.0423,-0.03175 -0.0529,-0.02117 -0.0635,-0.03175 -0.0635,-0.01058 -0.0741,-0.01058 -0.0741,-0.01058 h -0.0317 l -0.0741,0.01058 -0.0635,0.01058 -0.0741,0.02117 -0.0635,0.02117 -0.0635,0.03175 -0.0212,0.01058 -0.0529,0.04233 -0.0529,0.04233 -0.0423,0.05292 -0.0423,0.05292 -0.0423,0.0635 -0.0212,0.0635 -0.0212,0.0635 -0.0212,0.0635 -0.0106,0.0635 -0.0106,0.07408 v 0.08467 0.05292 l 0.0106,0.07408 0.0106,0.07408 0.0106,0.0635 0.0212,0.0635 0.0212,0.07408 0.0106,0.02117 0.0423,0.0635 0.0317,0.05292 0.0423,0.05292 0.0529,0.05292 0.0529,0.04233 0.0529,0.02117 0.0529,0.03175 0.0635,0.01058 0.0741,0.02117 0.0741,0.01058 h 0.0741 0.0106 l 0.0741,-0.01058 0.0741,-0.01058 0.0635,-0.01058 0.0635,-0.03175 0.0635,-0.03175 0.0529,-0.03175 0.0106,-0.02117 0.0529,-0.04233 0.0423,-0.05292 0.0317,-0.05292 0.0318,-0.0635 0.0317,-0.0635 0.0212,-0.07408"
       style="fill:none;stroke:#000000;stroke-width:0.25399992;stroke-linecap:round;stroke-linejoin:round;stroke-miterlimit:10;stroke-dasharray:none;stroke-opacity:1"
       id="path11666"
       inkscape:connector-curvature="0" />
    <path
       d="m -267.96835,-49.148301 h -0.99484 l 0.28575,-0.22225 0.0529,-0.0635 0.0318,-0.03175 0.0423,-0.03175 0.0635,-0.05292 0.0741,-0.0635 0.0317,-0.03175 0.0635,-0.0635 0.0635,-0.04233 0.0423,-0.05292 0.0529,-0.04233 0.0317,-0.03175 v -0.01058 l 0.0529,-0.0635 0.0423,-0.05292 0.0212,-0.0635 0.0212,-0.03175 0.0106,-0.07408 0.0106,-0.0635 -0.0106,-0.0635 -0.0106,-0.0635 -0.0212,-0.0635 -0.0423,-0.0635 -0.0423,-0.05292 -0.0212,-0.01058 -0.0529,-0.03175 -0.0529,-0.03175 -0.0635,-0.02117 -0.0741,-0.01058 -0.0741,-0.01058 h -0.0212 l -0.0847,0.01058 -0.0635,0.01058 -0.0635,0.02117 -0.0635,0.03175 -0.0529,0.04233 -0.0106,0.01058 -0.0423,0.04233 -0.0317,0.05292 -0.0212,0.0635 -0.0212,0.07408 -0.0106,0.07408"
       style="fill:none;stroke:#000000;stroke-width:0.25399992;stroke-linecap:round;stroke-linejoin:round;stroke-miterlimit:10;stroke-dasharray:none;stroke-opacity:1"
       id="path11668"
       inkscape:connector-curvature="0" />
    <path
       d="m -269.13252,-50.238384 -0.0106,-0.05292 -0.0317,-0.0635 -0.0317,-0.0635 -0.0423,-0.05292 -0.0423,-0.05292 -0.0529,-0.04233 -0.0423,-0.03175 -0.0635,-0.02117 -0.0529,-0.03175 -0.0741,-0.01058 -0.0741,-0.01058 -0.0741,-0.01058 h -0.0212 l -0.0741,0.01058 -0.0741,0.01058 -0.0635,0.02117 -0.0635,0.02117 -0.0635,0.03175 -0.0212,0.01058 -0.0529,0.04233 -0.0529,0.04233 -0.0529,0.05292 -0.0423,0.05292 -0.0317,0.0635 -0.0317,0.0635 -0.0212,0.0635 -0.0106,0.0635 -0.0212,0.0635 v 0.07408 l -0.0106,0.08467 0.0106,0.05292 v 0.07408 l 0.0106,0.07408 0.0212,0.0635 0.0212,0.0635 0.0212,0.07408 0.0106,0.02117 0.0317,0.0635 0.0423,0.05292 0.0423,0.05292 0.0529,0.05292 0.0529,0.04233 0.0423,0.02117 0.0635,0.03175 0.0635,0.01058 0.0635,0.02117 0.0741,0.01058 h 0.0847 0.0106 l 0.0741,-0.01058 0.0635,-0.01058 0.0741,-0.01058 0.0635,-0.03175 0.0529,-0.03175 0.0529,-0.03175 0.0212,-0.02117 0.0529,-0.04233 0.0317,-0.05292 0.0423,-0.05292 0.0318,-0.0635 0.0212,-0.0635 0.0317,-0.07408"
       style="fill:none;stroke:#000000;stroke-width:0.25399992;stroke-linecap:round;stroke-linejoin:round;stroke-miterlimit:10;stroke-dasharray:none;stroke-opacity:1"
       id="path11670"
       inkscape:connector-curvature="0" />
    <path
       d="m -259.96736,-49.148301 h -0.99483 l 0.28575,-0.22225 0.0529,-0.0635 0.0317,-0.03175 0.0423,-0.03175 0.0635,-0.05292 0.0741,-0.0635 0.0317,-0.03175 0.0635,-0.0635 0.0635,-0.04233 0.0423,-0.05292 0.0423,-0.04233 0.0423,-0.03175 v -0.01058 l 0.0529,-0.0635 0.0423,-0.05292 0.0212,-0.0635 0.0212,-0.03175 0.0106,-0.07408 0.0106,-0.0635 -0.0106,-0.0635 -0.0106,-0.0635 -0.0212,-0.0635 -0.0423,-0.0635 -0.0423,-0.05292 -0.0212,-0.01058 -0.0529,-0.03175 -0.0529,-0.03175 -0.0635,-0.02117 -0.0741,-0.01058 -0.0741,-0.01058 h -0.0317 l -0.0741,0.01058 -0.0635,0.01058 -0.0635,0.02117 -0.0635,0.03175 -0.0529,0.04233 -0.0106,0.01058 -0.0423,0.04233 -0.0317,0.05292 -0.0317,0.0635 -0.0106,0.07408 -0.0106,0.07408"
       style="fill:none;stroke:#000000;stroke-width:0.25399992;stroke-linecap:round;stroke-linejoin:round;stroke-miterlimit:10;stroke-dasharray:none;stroke-opacity:1"
       id="path11672"
       inkscape:connector-curvature="0" />
    <path
       d="m -261.13152,-50.238384 -0.0106,-0.05292 -0.0317,-0.0635 -0.0317,-0.0635 -0.0423,-0.05292 -0.0423,-0.05292 -0.0529,-0.04233 -0.0423,-0.03175 -0.0635,-0.02117 -0.0635,-0.03175 -0.0635,-0.01058 -0.0741,-0.01058 -0.0741,-0.01058 h -0.0212 l -0.0741,0.01058 -0.0741,0.01058 -0.0635,0.02117 -0.0635,0.02117 -0.0635,0.03175 -0.0212,0.01058 -0.0635,0.04233 -0.0423,0.04233 -0.0529,0.05292 -0.0423,0.05292 -0.0317,0.0635 -0.0318,0.0635 -0.0212,0.0635 -0.0212,0.0635 -0.0106,0.0635 v 0.07408 l -0.0106,0.08467 v 0.05292 l 0.0106,0.07408 0.0106,0.07408 0.0212,0.0635 0.0212,0.0635 0.0212,0.07408 0.0106,0.02117 0.0317,0.0635 0.0423,0.05292 0.0423,0.05292 0.0529,0.05292 0.0529,0.04233 0.0423,0.02117 0.0635,0.03175 0.0635,0.01058 0.0635,0.02117 0.0741,0.01058 h 0.0847 0.0106 l 0.0741,-0.01058 0.0635,-0.01058 0.0741,-0.01058 0.0635,-0.03175 0.0529,-0.03175 0.0529,-0.03175 0.0212,-0.02117 0.0423,-0.04233 0.0423,-0.05292 0.0423,-0.05292 0.0317,-0.0635 0.0212,-0.0635 0.0318,-0.07408"
       style="fill:none;stroke:#000000;stroke-width:0.25399992;stroke-linecap:round;stroke-linejoin:round;stroke-miterlimit:10;stroke-dasharray:none;stroke-opacity:1"
       id="path11674"
       inkscape:connector-curvature="0" />
    <path
       d="m -251.96636,-49.148301 h -0.99483 l 0.28575,-0.22225 0.0529,-0.0635 0.0318,-0.03175 0.0423,-0.03175 0.0635,-0.05292 0.0741,-0.0635 0.0318,-0.03175 0.0635,-0.0635 0.0635,-0.04233 0.0423,-0.05292 0.0423,-0.04233 0.0423,-0.03175 v -0.01058 l 0.0529,-0.0635 0.0318,-0.05292 0.0317,-0.0635 0.0212,-0.03175 0.0106,-0.07408 0.0106,-0.0635 -0.0106,-0.0635 -0.0106,-0.0635 -0.0212,-0.0635 -0.0423,-0.0635 -0.0423,-0.05292 -0.0212,-0.01058 -0.0529,-0.03175 -0.0529,-0.03175 -0.0741,-0.02117 -0.0635,-0.01058 -0.0847,-0.01058 h -0.0212 l -0.0741,0.01058 -0.0635,0.01058 -0.0635,0.02117 -0.0635,0.03175 -0.0529,0.04233 -0.0106,0.01058 -0.0423,0.04233 -0.0317,0.05292 -0.0318,0.0635 -0.0106,0.07408 -0.0212,0.07408"
       style="fill:none;stroke:#000000;stroke-width:0.25399992;stroke-linecap:round;stroke-linejoin:round;stroke-miterlimit:10;stroke-dasharray:none;stroke-opacity:1"
       id="path11676"
       inkscape:connector-curvature="0" />
    <path
       d="m -253.13053,-50.238384 -0.0106,-0.05292 -0.0317,-0.0635 -0.0318,-0.0635 -0.0423,-0.05292 -0.0423,-0.05292 -0.0529,-0.04233 -0.0423,-0.03175 -0.0635,-0.02117 -0.0635,-0.03175 -0.0635,-0.01058 -0.0741,-0.01058 -0.0741,-0.01058 h -0.0318 l -0.0635,0.01058 -0.0741,0.01058 -0.0635,0.02117 -0.0635,0.02117 -0.0635,0.03175 -0.0212,0.01058 -0.0635,0.04233 -0.0529,0.04233 -0.0423,0.05292 -0.0423,0.05292 -0.0317,0.0635 -0.0318,0.0635 -0.0212,0.0635 -0.0212,0.0635 -0.0106,0.0635 -0.0106,0.07408 v 0.08467 0.05292 l 0.0106,0.07408 0.0106,0.07408 0.0106,0.0635 0.0212,0.0635 0.0317,0.07408 0.0106,0.02117 0.0317,0.0635 0.0423,0.05292 0.0423,0.05292 0.0423,0.05292 0.0635,0.04233 0.0423,0.02117 0.0635,0.03175 0.0635,0.01058 0.0635,0.02117 0.0741,0.01058 h 0.0847 0.0106 l 0.0741,-0.01058 0.0635,-0.01058 0.0741,-0.01058 0.0529,-0.03175 0.0635,-0.03175 0.0529,-0.03175 0.0212,-0.02117 0.0423,-0.04233 0.0423,-0.05292 0.0423,-0.05292 0.0317,-0.0635 0.0212,-0.0635 0.0212,-0.07408"
       style="fill:none;stroke:#000000;stroke-width:0.25399992;stroke-linecap:round;stroke-linejoin:round;stroke-miterlimit:10;stroke-dasharray:none;stroke-opacity:1"
       id="path11678"
       inkscape:connector-curvature="0" />
    <path
       d="m -243.96536,-49.148301 h -0.99483 l 0.28575,-0.22225 0.0529,-0.0635 0.0318,-0.03175 0.0423,-0.03175 0.0635,-0.05292 0.0741,-0.0635 0.0318,-0.03175 0.0635,-0.0635 0.0529,-0.04233 0.0529,-0.05292 0.0423,-0.04233 0.0423,-0.03175 v -0.01058 l 0.0529,-0.0635 0.0317,-0.05292 0.0318,-0.0635 0.0106,-0.03175 0.0212,-0.07408 v -0.0635 -0.0635 l -0.0106,-0.0635 -0.0318,-0.0635 -0.0317,-0.0635 -0.0423,-0.05292 -0.0212,-0.01058 -0.0529,-0.03175 -0.0529,-0.03175 -0.0741,-0.02117 -0.0635,-0.01058 -0.0847,-0.01058 h -0.0212 l -0.0741,0.01058 -0.0741,0.01058 -0.0635,0.02117 -0.0529,0.03175 -0.0529,0.04233 -0.0106,0.01058 -0.0423,0.04233 -0.0317,0.05292 -0.0318,0.0635 -0.0212,0.07408 -0.0106,0.07408"
       style="fill:none;stroke:#000000;stroke-width:0.25399992;stroke-linecap:round;stroke-linejoin:round;stroke-miterlimit:10;stroke-dasharray:none;stroke-opacity:1"
       id="path11680"
       inkscape:connector-curvature="0" />
    <path
       d="m -245.12953,-50.238384 -0.0212,-0.05292 -0.0212,-0.0635 -0.0317,-0.0635 -0.0423,-0.05292 -0.0423,-0.05292 -0.0529,-0.04233 -0.0423,-0.03175 -0.0635,-0.02117 -0.0635,-0.03175 -0.0635,-0.01058 -0.0741,-0.01058 -0.0741,-0.01058 h -0.0317 l -0.0635,0.01058 -0.0741,0.01058 -0.0635,0.02117 -0.0635,0.02117 -0.0635,0.03175 -0.0212,0.01058 -0.0635,0.04233 -0.0529,0.04233 -0.0423,0.05292 -0.0423,0.05292 -0.0317,0.0635 -0.0318,0.0635 -0.0212,0.0635 -0.0212,0.0635 -0.0106,0.0635 -0.0106,0.07408 v 0.08467 0.05292 l 0.0106,0.07408 0.0106,0.07408 0.0106,0.0635 0.0212,0.0635 0.0317,0.07408 0.0106,0.02117 0.0317,0.0635 0.0423,0.05292 0.0423,0.05292 0.0423,0.05292 0.0635,0.04233 0.0423,0.02117 0.0635,0.03175 0.0635,0.01058 0.0635,0.02117 0.0741,0.01058 h 0.0847 l 0.0847,-0.01058 0.0635,-0.01058 0.0635,-0.01058 0.0635,-0.03175 0.0635,-0.03175 0.0529,-0.03175 0.0212,-0.02117 0.0423,-0.04233 0.0423,-0.05292 0.0423,-0.05292 0.0318,-0.0635 0.0212,-0.0635 0.0212,-0.07408"
       style="fill:none;stroke:#000000;stroke-width:0.25399992;stroke-linecap:round;stroke-linejoin:round;stroke-miterlimit:10;stroke-dasharray:none;stroke-opacity:1"
       id="path11682"
       inkscape:connector-curvature="0" />
    <path
       d="m -235.96436,-49.148301 h -0.99484 l 0.28575,-0.22225 0.0423,-0.0635 h 0.0106 l 0.0212,-0.03175 0.0529,-0.03175 0.0529,-0.05292 0.0847,-0.0635 0.0318,-0.03175 0.0635,-0.0635 0.0529,-0.04233 0.0529,-0.05292 0.0423,-0.04233 0.0317,-0.03175 0.0106,-0.01058 0.0529,-0.0635 0.0317,-0.05292 0.0318,-0.0635 0.0106,-0.03175 0.0212,-0.07408 v -0.0635 -0.0635 l -0.0106,-0.0635 -0.0317,-0.0635 -0.0317,-0.0635 -0.0423,-0.05292 -0.0212,-0.01058 -0.0529,-0.03175 -0.0635,-0.03175 -0.0635,-0.02117 -0.0635,-0.01058 -0.0847,-0.01058 h -0.0212 l -0.0741,0.01058 -0.0741,0.01058 -0.0635,0.02117 -0.0529,0.03175 -0.0529,0.04233 -0.0106,0.01058 -0.0423,0.04233 -0.0317,0.05292 -0.0318,0.0635 -0.0212,0.07408 -0.0106,0.07408"
       style="fill:none;stroke:#000000;stroke-width:0.25399992;stroke-linecap:round;stroke-linejoin:round;stroke-miterlimit:10;stroke-dasharray:none;stroke-opacity:1"
       id="path11684"
       inkscape:connector-curvature="0" />
    <path
       d="m -237.12853,-50.238384 -0.0212,-0.05292 -0.0212,-0.0635 -0.0423,-0.0635 -0.0317,-0.05292 -0.0529,-0.05292 -0.0423,-0.04233 -0.0423,-0.03175 -0.0635,-0.02117 -0.0635,-0.03175 -0.0635,-0.01058 -0.0741,-0.01058 -0.0741,-0.01058 h -0.0317 l -0.0741,0.01058 -0.0635,0.01058 -0.0635,0.02117 -0.0741,0.02117 -0.0529,0.03175 -0.0212,0.01058 -0.0635,0.04233 -0.0529,0.04233 -0.0423,0.05292 -0.0423,0.05292 -0.0317,0.0635 -0.0318,0.0635 -0.0212,0.0635 -0.0212,0.0635 -0.0106,0.0635 -0.0106,0.07408 v 0.08467 0.05292 l 0.0106,0.07408 0.0106,0.07408 0.0106,0.0635 0.0212,0.0635 0.0318,0.07408 0.0106,0.02117 0.0317,0.0635 0.0317,0.05292 0.0529,0.05292 0.0423,0.05292 0.0529,0.04233 0.0529,0.02117 0.0529,0.03175 0.0741,0.01058 0.0635,0.02117 0.0741,0.01058 h 0.0847 l 0.0741,-0.01058 0.0741,-0.01058 0.0635,-0.01058 0.0635,-0.03175 0.0635,-0.03175 0.0529,-0.03175 0.0212,-0.02117 0.0423,-0.04233 0.0423,-0.05292 0.0423,-0.05292 0.0318,-0.0635 0.0212,-0.0635 0.0212,-0.07408"
       style="fill:none;stroke:#000000;stroke-width:0.25399992;stroke-linecap:round;stroke-linejoin:round;stroke-miterlimit:10;stroke-dasharray:none;stroke-opacity:1"
       id="path11686"
       inkscape:connector-curvature="0" />
    <path
       d="m -227.97395,-49.148301 h -0.98425 l 0.28575,-0.22225 0.0423,-0.0635 0.0318,-0.03175 0.0529,-0.03175 0.0529,-0.05292 0.0741,-0.0635 0.0423,-0.03175 0.0635,-0.0635 0.0529,-0.04233 0.0529,-0.05292 0.0423,-0.04233 0.0317,-0.03175 0.0106,-0.01058 0.0423,-0.0635 0.0423,-0.05292 0.0318,-0.0635 0.0106,-0.03175 0.0212,-0.07408 v -0.0635 -0.0635 l -0.0106,-0.0635 -0.0317,-0.0635 -0.0318,-0.0635 -0.0529,-0.05292 -0.0106,-0.01058 -0.0529,-0.03175 -0.0635,-0.03175 -0.0635,-0.02117 -0.0741,-0.01058 -0.0741,-0.01058 h -0.0212 l -0.0741,0.01058 -0.0741,0.01058 -0.0635,0.02117 -0.0529,0.03175 -0.0529,0.04233 -0.0106,0.01058 -0.0423,0.04233 -0.0318,0.05292 -0.0317,0.0635 -0.0212,0.07408 -0.0106,0.07408"
       style="fill:none;stroke:#000000;stroke-width:0.25399992;stroke-linecap:round;stroke-linejoin:round;stroke-miterlimit:10;stroke-dasharray:none;stroke-opacity:1"
       id="path11688"
       inkscape:connector-curvature="0" />
    <path
       d="m -229.12753,-50.238384 -0.0212,-0.05292 -0.0212,-0.0635 -0.0423,-0.0635 -0.0318,-0.05292 -0.0529,-0.05292 -0.0529,-0.04233 -0.0317,-0.03175 -0.0635,-0.02117 -0.0635,-0.03175 -0.0635,-0.01058 -0.0741,-0.01058 -0.0741,-0.01058 h -0.0317 l -0.0741,0.01058 -0.0635,0.01058 -0.0741,0.02117 -0.0635,0.02117 -0.0529,0.03175 -0.0212,0.01058 -0.0635,0.04233 -0.0529,0.04233 -0.0423,0.05292 -0.0423,0.05292 -0.0423,0.0635 -0.0212,0.0635 -0.0212,0.0635 -0.0212,0.0635 -0.0106,0.0635 -0.0106,0.07408 v 0.08467 0.05292 l 0.0106,0.07408 0.0106,0.07408 0.0106,0.0635 0.0212,0.0635 0.0212,0.07408 0.0106,0.02117 0.0423,0.0635 0.0317,0.05292 0.0423,0.05292 0.0529,0.05292 0.0529,0.04233 0.0529,0.02117 0.0529,0.03175 0.0635,0.01058 0.0741,0.02117 0.0741,0.01058 h 0.0847 l 0.0741,-0.01058 0.0741,-0.01058 0.0635,-0.01058 0.0635,-0.03175 0.0635,-0.03175 0.0529,-0.03175 0.0212,-0.02117 0.0423,-0.04233 0.0423,-0.05292 0.0317,-0.05292 0.0318,-0.0635 0.0317,-0.0635 0.0212,-0.07408"
       style="fill:none;stroke:#000000;stroke-width:0.25399992;stroke-linecap:round;stroke-linejoin:round;stroke-miterlimit:10;stroke-dasharray:none;stroke-opacity:1"
       id="path11690"
       inkscape:connector-curvature="0" />
    <path
       d="m -281.25043,-29.685557 v -0.994833 l 0.22225,0.28575 0.0529,0.05292 0.0318,0.03175 0.0423,0.04233 0.0529,0.0635 0.0635,0.07408 0.0317,0.03175 0.0529,0.0635 0.0529,0.0635 0.0423,0.04233 0.0423,0.04233 0.0423,0.04233 h 0.0106 l 0.0529,0.05292 0.0635,0.04233 0.0529,0.02117 0.0423,0.02117 0.0635,0.01058 0.0741,0.01058 0.0529,-0.01058 0.0741,-0.01058 0.0635,-0.02117 0.0529,-0.04233 0.0529,-0.04233 0.0212,-0.02117 0.0317,-0.05292 0.0317,-0.05292 0.0212,-0.0635 0.0106,-0.07408 v -0.07408 -0.02117 -0.08467 l -0.0212,-0.0635 -0.0212,-0.0635 -0.0317,-0.0635 -0.0317,-0.05292 -0.0106,-0.01058 -0.0529,-0.04233 -0.0529,-0.03175 -0.0635,-0.02117 -0.0635,-0.02117 -0.0847,-0.01058"
       style="fill:none;stroke:#000000;stroke-width:0.25399992;stroke-linecap:round;stroke-linejoin:round;stroke-miterlimit:10;stroke-dasharray:none;stroke-opacity:1"
       id="path11692"
       inkscape:connector-curvature="0" />
    <path
       d="m -280.16035,-30.849723 0.0423,-0.01058 0.0741,-0.03175 0.0529,-0.03175 0.0635,-0.04233 0.0423,-0.04233 0.0423,-0.05292 0.0317,-0.04233 0.0317,-0.0635 0.0212,-0.0635 0.0212,-0.0635 0.0106,-0.07408 v -0.07408 -0.02117 -0.07408 l -0.0106,-0.07408 -0.0212,-0.0635 -0.0212,-0.0635 -0.0317,-0.0635 -0.0106,-0.02117 -0.0423,-0.05292 -0.0423,-0.05292 -0.0529,-0.05292 -0.0529,-0.04233 -0.0635,-0.03175 -0.0635,-0.03175 -0.0635,-0.02117 -0.0635,-0.01058 -0.0741,-0.02117 h -0.0741 l -0.0741,-0.01058 -0.0635,0.01058 h -0.0741 l -0.0635,0.01058 -0.0741,0.02117 -0.0635,0.02117 -0.0635,0.02117 -0.0212,0.01058 -0.0635,0.03175 -0.0635,0.04233 -0.0529,0.04233 -0.0423,0.05292 -0.0423,0.05292 -0.0317,0.04233 -0.0212,0.0635 -0.0212,0.0635 -0.0106,0.0635 -0.0106,0.07408 v 0.08467 0.01058 0.07408 l 0.0106,0.0635 0.0212,0.07408 0.0212,0.0635 0.0317,0.05292 0.0423,0.05292 0.0106,0.02117 0.0423,0.05292 0.0529,0.03175 0.0635,0.04233 0.0635,0.03175 0.0635,0.02117 0.0741,0.03175"
       style="fill:none;stroke:#000000;stroke-width:0.25399992;stroke-linecap:round;stroke-linejoin:round;stroke-miterlimit:10;stroke-dasharray:none;stroke-opacity:1"
       id="path11694"
       inkscape:connector-curvature="0" />
    <path
       d="m -259.96736,50.843001 h -0.99483 l 0.28575,-0.22225 0.0529,-0.05292 0.0317,-0.03175 0.0423,-0.04233 0.0635,-0.05292 0.0741,-0.0635 0.0317,-0.03175 0.0635,-0.05292 0.0635,-0.05292 0.0423,-0.04233 0.0423,-0.04233 0.0423,-0.04233 0.0529,-0.0635 0.0423,-0.0635 0.0212,-0.05292 0.0212,-0.04233 0.0106,-0.0635 0.0106,-0.07408 -0.0106,-0.05292 -0.0106,-0.07408 -0.0212,-0.05292 -0.0423,-0.0635 -0.0423,-0.05292 -0.0212,-0.01058 -0.0529,-0.04233 -0.0529,-0.03175 -0.0635,-0.02117 -0.0741,-0.01058 h -0.0741 -0.0317 -0.0741 l -0.0635,0.02117 -0.0635,0.02117 -0.0635,0.03175 -0.0529,0.03175 -0.0106,0.01058 -0.0423,0.05292 -0.0317,0.05292 -0.0317,0.0635 -0.0106,0.07408 -0.0106,0.07408"
       style="fill:none;stroke:#000000;stroke-width:0.25399992;stroke-linecap:round;stroke-linejoin:round;stroke-miterlimit:10;stroke-dasharray:none;stroke-opacity:1"
       id="path11696"
       inkscape:connector-curvature="0" />
    <path
       d="m -261.13152,49.752918 -0.0106,-0.04233 -0.0317,-0.0635 -0.0317,-0.0635 -0.0423,-0.05292 -0.0423,-0.05292 -0.0529,-0.04233 -0.0423,-0.03175 -0.0635,-0.03175 -0.0635,-0.02117 -0.0635,-0.02117 -0.0741,-0.01058 h -0.0741 -0.0212 l -0.0741,0.01058 -0.0741,0.01058 -0.0635,0.01058 -0.0635,0.03175 -0.0635,0.03175 -0.0212,0.01058 -0.0635,0.03175 -0.0423,0.05292 -0.0529,0.04233 -0.0423,0.0635 -0.0317,0.0635 -0.0318,0.05292 -0.0212,0.0635 -0.0212,0.07408 -0.0106,0.0635 v 0.07408 l -0.0106,0.07408 v 0.0635 l 0.0106,0.07408 0.0106,0.0635 0.0212,0.07408 0.0212,0.0635 0.0212,0.0635 0.0106,0.02117 0.0317,0.07408 0.0423,0.05292 0.0423,0.05292 0.0529,0.04233 0.0529,0.04233 0.0423,0.03175 0.0635,0.02117 0.0635,0.02117 0.0635,0.02117 h 0.0741 l 0.0847,0.01058 h 0.0106 l 0.0741,-0.01058 0.0635,-0.01058 0.0741,-0.02117 0.0635,-0.02117 0.0529,-0.03175 0.0529,-0.04233 0.0212,-0.01058 0.0423,-0.04233 0.0423,-0.05292 0.0423,-0.05292 0.0317,-0.0635 0.0212,-0.07408 0.0318,-0.07408"
       style="fill:none;stroke:#000000;stroke-width:0.25399992;stroke-linecap:round;stroke-linejoin:round;stroke-miterlimit:10;stroke-dasharray:none;stroke-opacity:1"
       id="path11698"
       inkscape:connector-curvature="0" />
    <path
       d="m 76.794204,25.189009 h -8.392581 v 0.994833 h 8.392581 v -0.994833"
       style="fill:none;stroke:#000000;stroke-width:0.25399992;stroke-linecap:round;stroke-linejoin:round;stroke-miterlimit:10;stroke-dasharray:none;stroke-opacity:1"
       id="path11700"
       inkscape:connector-curvature="0" />
    <path
       d="M 1.4091446,-31.918639 H 11.410391 l 52.101734,52.101733 h 10.001247"
       style="fill:none;stroke:#000000;stroke-width:0.25399992;stroke-linecap:round;stroke-linejoin:round;stroke-miterlimit:10;stroke-dasharray:none;stroke-opacity:1"
       id="path11702"
       inkscape:connector-curvature="0" />
    <path
       d="M 30.386302,-5.8624809 H 11.410391 V -24.848975 l 18.975911,18.9864941"
       style="fill:none;stroke:#000000;stroke-width:0.25399992;stroke-linecap:round;stroke-linejoin:round;stroke-miterlimit:10;stroke-dasharray:none;stroke-opacity:1"
       id="path11704"
       inkscape:connector-curvature="0" />
    <path
       d="M 37.455967,1.2071835 56.442461,20.183094 H 37.455967 V 1.2071835"
       style="fill:none;stroke:#000000;stroke-width:0.25399992;stroke-linecap:round;stroke-linejoin:round;stroke-miterlimit:10;stroke-dasharray:none;stroke-opacity:1"
       id="path11706"
       inkscape:connector-curvature="0" />
    <path
       d="M 11.410391,1.2071835 30.386302,20.183094 H 11.410391 V 1.2071835"
       style="fill:none;stroke:#000000;stroke-width:0.25399992;stroke-linecap:round;stroke-linejoin:round;stroke-miterlimit:10;stroke-dasharray:none;stroke-opacity:1"
       id="path11708"
       inkscape:connector-curvature="0" />
    <path
       d="M 32.460635,15.187762 V -0.86714914 H 16.405723 L 32.460635,15.187762"
       style="fill:none;stroke:#000000;stroke-width:0.25399992;stroke-linecap:round;stroke-linejoin:round;stroke-miterlimit:10;stroke-dasharray:none;stroke-opacity:1"
       id="path11710"
       inkscape:connector-curvature="0" />
    <path
       d="M 74.793955,28.184092 V 27.189259 H 3.409394 v 0.994833 h 71.384561"
       style="fill:none;stroke:#000000;stroke-width:0.25399992;stroke-linecap:round;stroke-linejoin:round;stroke-miterlimit:10;stroke-dasharray:none;stroke-opacity:1"
       id="path11712"
       inkscape:connector-curvature="0" />
    <path
       d="M 74.793955,24.183593 V 23.18876 H 3.409394 v 0.994833 h 71.384561"
       style="fill:none;stroke:#000000;stroke-width:0.25399992;stroke-linecap:round;stroke-linejoin:round;stroke-miterlimit:10;stroke-dasharray:none;stroke-opacity:1"
       id="path11714"
       inkscape:connector-curvature="0" />
    <path
       d="M 23.200221,26.183842 V 25.189009 H 14.80764 v 0.994833 h 8.392581"
       style="fill:none;stroke:#000000;stroke-width:0.25399992;stroke-linecap:round;stroke-linejoin:round;stroke-miterlimit:10;stroke-dasharray:none;stroke-opacity:1"
       id="path11716"
       inkscape:connector-curvature="0" />
    <path
       d="m 36.598717,26.183842 v -0.994833 h -8.392581 v 0.994833 h 8.392581"
       style="fill:none;stroke:#000000;stroke-width:0.25399992;stroke-linecap:round;stroke-linejoin:round;stroke-miterlimit:10;stroke-dasharray:none;stroke-opacity:1"
       id="path11718"
       inkscape:connector-curvature="0" />
    <path
       d="m 55.003128,26.183842 v -0.994833 h 8.39258 v 0.994833 h -8.39258"
       style="fill:none;stroke:#000000;stroke-width:0.25399992;stroke-linecap:round;stroke-linejoin:round;stroke-miterlimit:10;stroke-dasharray:none;stroke-opacity:1"
       id="path11720"
       inkscape:connector-curvature="0" />
    <path
       d="m 41.604632,26.183842 v -0.994833 h 8.392581 v 0.994833 h -8.392581"
       style="fill:none;stroke:#000000;stroke-width:0.25399992;stroke-linecap:round;stroke-linejoin:round;stroke-miterlimit:10;stroke-dasharray:none;stroke-opacity:1"
       id="path11722"
       inkscape:connector-curvature="0" />
    <path
       d="m -343.82966,17.950012 v 0.994833 l -0.22225,-0.28575 -0.0529,-0.04233 -0.0317,-0.03175 -0.0423,-0.05292 -0.0529,-0.05292 -0.0635,-0.08467 -0.0212,-0.03175 -0.0635,-0.0635 -0.0529,-0.05292 -0.0423,-0.05292 -0.0423,-0.04233 -0.0423,-0.03175 v -0.01058 l -0.0635,-0.05292 -0.0635,-0.03175 -0.0529,-0.03175 -0.0423,-0.01058 -0.0635,-0.02117 h -0.0741 -0.0529 l -0.0741,0.01058 -0.0529,0.03175 -0.0635,0.03175 -0.0529,0.05292 -0.0106,0.01058 -0.0423,0.05292 -0.0317,0.0635 -0.0212,0.0635 -0.0106,0.07408 v 0.07408 0.02117 l 0.0106,0.07408 0.0106,0.07408 0.0212,0.0635 0.0317,0.05292 0.0318,0.05292 0.0106,0.01058 0.0529,0.04233 0.0529,0.03175 0.0635,0.03175 0.0741,0.02117 0.0741,0.01058"
       style="fill:none;stroke:#000000;stroke-width:0.25399992;stroke-linecap:round;stroke-linejoin:round;stroke-miterlimit:10;stroke-dasharray:none;stroke-opacity:1"
       id="path11724"
       inkscape:connector-curvature="0" />
    <path
       d="m -344.91975,19.114178 -0.0423,0.02117 -0.0635,0.02117 -0.0635,0.04233 -0.0529,0.03175 -0.0529,0.05292 -0.0423,0.04233 -0.0317,0.04233 -0.0317,0.0635 -0.0212,0.0635 -0.0212,0.0635 -0.0106,0.07408 v 0.07408 0.03175 l 0.0106,0.07408 0.0106,0.0635 0.0106,0.0635 0.0317,0.07408 0.0317,0.05292 0.0106,0.02117 0.0318,0.0635 0.0529,0.05292 0.0423,0.04233 0.0635,0.04233 0.0635,0.04233 0.0529,0.02117 0.0635,0.02117 0.0741,0.02117 0.0635,0.01058 0.0741,0.01058 h 0.0741 0.0635 l 0.0741,-0.01058 0.0635,-0.01058 0.0741,-0.01058 0.0635,-0.02117 0.0635,-0.03175 h 0.0212 l 0.0741,-0.04233 0.0529,-0.03175 0.0529,-0.05292 0.0423,-0.04233 0.0423,-0.05292 0.0317,-0.05292 0.0212,-0.05292 0.0212,-0.0635 0.0212,-0.07408 v -0.07408 l 0.0106,-0.08467 -0.0106,-0.07408 -0.0106,-0.07408 -0.0212,-0.0635 -0.0212,-0.0635 -0.0318,-0.0635 -0.0423,-0.05292 -0.0106,-0.02117 -0.0423,-0.04233 -0.0529,-0.04233 -0.0529,-0.03175 -0.0635,-0.04233 -0.0741,-0.02117 -0.0741,-0.02117"
       style="fill:none;stroke:#000000;stroke-width:0.25399992;stroke-linecap:round;stroke-linejoin:round;stroke-miterlimit:10;stroke-dasharray:none;stroke-opacity:1"
       id="path11726"
       inkscape:connector-curvature="0" />
    <path
       d="M 255.80065,0.08535056 V -53.910799"
       style="fill:none;stroke:#000000;stroke-width:0.25399992;stroke-linecap:round;stroke-linejoin:round;stroke-miterlimit:10;stroke-dasharray:none;stroke-opacity:1"
       id="path11728"
       inkscape:connector-curvature="0" />
    <path
       d="M 195.79317,0.08535056 V -53.910799"
       style="fill:none;stroke:#000000;stroke-width:0.25399992;stroke-linecap:round;stroke-linejoin:round;stroke-miterlimit:10;stroke-dasharray:none;stroke-opacity:1"
       id="path11730"
       inkscape:connector-curvature="0" />
    <path
       d="M 84.795202,46.080503 H 139.86027"
       style="fill:none;stroke:#000000;stroke-width:0.25399992;stroke-linecap:round;stroke-linejoin:round;stroke-miterlimit:10;stroke-dasharray:none;stroke-opacity:1"
       id="path11732"
       inkscape:connector-curvature="0" />
    <path
       d="m 84.795202,-23.917642 h -1.49225 v 3.005666 h 1.49225 v -3.005666 -29.993157"
       style="fill:none;stroke:#000000;stroke-width:0.25399992;stroke-linecap:round;stroke-linejoin:round;stroke-miterlimit:10;stroke-dasharray:none;stroke-opacity:1"
       id="path11734"
       inkscape:connector-curvature="0" />
    <path
       d="M -1.882271,-53.910799 H -351.87299 V 96.076154 H -1.882271 V -53.910799"
       style="fill:none;stroke:#000000;stroke-width:0.25399992;stroke-linecap:round;stroke-linejoin:round;stroke-miterlimit:10;stroke-dasharray:none;stroke-opacity:1"
       id="path11736"
       inkscape:connector-curvature="0" />
    <path
       d="M 698.10976,-53.910799 H 348.11904 V 96.076154 H 698.10976 V -53.910799"
       style="fill:none;stroke:#000000;stroke-width:0.25399992;stroke-linecap:round;stroke-linejoin:round;stroke-miterlimit:10;stroke-dasharray:none;stroke-opacity:1"
       id="path11738"
       inkscape:connector-curvature="0" />
    <path
       d="M 348.11904,-53.910799 H -1.882271 V 96.076154 H 348.11904 V -53.910799"
       style="fill:none;stroke:#000000;stroke-width:0.25399992;stroke-linecap:round;stroke-linejoin:round;stroke-miterlimit:10;stroke-dasharray:none;stroke-opacity:1"
       id="path11740"
       inkscape:connector-curvature="0" />
  </g>
</svg>
