<?xml version="1.0" encoding="UTF-8"?>
<!-- 2017-10-16 02:42:38 Generated by QCAD SVG Exporter PG -->
<svg width="345.12293565069604mm" height="164.89426741628944mm" viewBox="192.06201006314814 -205.8751398948507 345.12293565069604 164.89426741628944" version="1.1" xmlns="http://www.w3.org/2000/svg" style="stroke-linecap:round;stroke-linejoin:round;fill:none" xmlns:qs="http://qcad.org/namespaces/svg" xmlns:sodipodi="http://sodipodi.sourceforge.net/DTD/sodipodi-0.dtd" xmlns:inkscape="http://www.inkscape.org/namespaces/inkscape">
    <sodipodi:namedview inkscape:document-units="mm" unitToSymbol="mm" units="mm"/>
    <g transform="scale(1,-1)">
        <!-- Polilinha -->
        <path d="M317.978405877643,87.51237085358207 L301.8925487155267,87.51237085358207 L317.978405877643,101.84951518104998 Z" style="stroke:#00ff00;stroke-width:0;" qs:layer="1 - Interna"/>
        <!-- Polilinha -->
        <path d="M328.5882598327639,111.30595918119741 L344.9253055283824,125.86698503527163 L344.9253055283824,111.30595918119741 Z" style="stroke:#00ff00;stroke-width:0;" qs:layer="1 - Interna"/>
        <!-- Polilinha -->
        <path d="M344.9253055283824,103.72452028688258 L344.9253055283824,87.51237085358207 L326.7357474045008,87.51237085358207 Z" style="stroke:#00ff00;stroke-width:0;" qs:layer="1 - Interna"/>
        <!-- Polilinha -->
        <path d="M322.9784058776431,90.86124727435526 L322.9784058776431,106.3059591811973 L340.3069215129026,106.3059591811973 Z" style="stroke:#00ff00;stroke-width:0;" qs:layer="1 - Interna"/>
        <!-- Polilinha -->
        <path d="M231.09012776079555,176.60141996156563 L221.09012776079555,176.60141996156563 L221.09012776079555,179.60141996156563 L231.09012776079555,179.60141996156563 Z" style="stroke:#00ff00;stroke-width:0;" qs:layer="1 - Interna"/>
        <!-- Polilinha -->
        <path d="M304.41749553271586,176.60141996156563 L294.41749553271586,176.60141996156563 L294.41749553271586,179.60141996156563 L304.41749553271586,179.60141996156563 Z" style="stroke:#00ff00;stroke-width:0;" qs:layer="1 - Interna"/>
        <!-- Polilinha -->
        <path d="M525.1849457138441,119.56473787681853 L531.1849457138441,119.56473787681853 L531.1849457138441,116.56473787681853 L537.1849457138441,116.56473787681853 L537.1849457138441,122.56473787681853 L525.1849457138441,122.56473787681853 L525.1849457138441,132.56473787681853 L520.184945713844,132.56473787681853 L469.6375058472738,87.5123708535823 L469.6375058472738,59.738650920297005 L474.6375058472738,59.738650920297005 L477.6375058472738,59.738650920297005 L480.6375058472738,59.738650920297005 L480.6375058472738,69.738650920297 L477.6375058472738,69.738650920297 L477.6375058472738,64.738650920297 L474.6375058472738,64.738650920297 L474.6375058472738,82.51237085358207 L520.184945713844,82.51237085358207 L520.184945713844,64.738650920297 L517.184945713844,64.738650920297 L517.184945713844,69.738650920297 L514.184945713844,69.738650920297 L514.184945713844,59.738650920297005 L517.184945713844,59.738650920297005 L520.184945713844,59.738650920297005 L525.184945713844,59.738650920297005 L525.184945713844,69.30386831160104 L531.1849457138442,69.30386831160104 L531.1849457138442,66.30386831160104 L537.1849457138442,66.30386831160104 L537.1849457138442,72.30386831160104 L525.184945713844,72.30386831160104 L525.184945713844,87.51237085358207 Z" style="stroke:#ff0000;stroke-width:0;" qs:layer="2 - Externa"/>
        <!-- Polilinha -->
        <path d="M391.3497679462571,183.10141996156563 L391.3497679462571,173.10141996156563 L456.6106375114746,173.10141996156563 L456.6106375114746,155.32770002828056 L456.6106375114746,150.32770002828056 L484.38435744475964,150.32770002828056 L484.38435744475964,155.32770002828056 L484.38435744475964,158.32770002828056 L484.38435744475964,161.32770002828056 L474.38435744475964,161.32770002828056 L474.38435744475964,158.32770002828056 L479.38435744475964,158.32770002828056 L479.38435744475964,155.32770002828056 L461.6106375114746,155.32770002828056 L461.6106375114746,200.8751398948507 L479.38435744475964,200.8751398948507 L479.38435744475964,197.8751398948507 L474.38435744475964,197.8751398948507 L474.38435744475964,194.8751398948507 L484.38435744475964,194.8751398948507 L484.38435744475964,197.8751398948507 L484.38435744475964,200.8751398948507 L484.38435744475964,205.8751398948507 L456.6106375114746,205.8751398948507 L456.6106375114746,200.8751398948507 L456.6106375114746,183.10141996156563 Z" style="stroke:#ff0000;stroke-width:0;" qs:layer="2 - Externa"/>
        <!-- Polilinha -->
        <path d="M464.6771357181774,183.10141996156563 L464.6771357181774,173.10141996156563 L504.80757050078614,173.10141996156563 L504.80757050078614,155.32770002828056 L504.80757050078614,150.32770002828056 L532.5812904340712,150.32770002828056 L532.5812904340712,155.32770002828056 L532.5812904340712,158.32770002828056 L532.5812904340712,161.32770002828056 L522.5812904340712,161.32770002828056 L522.5812904340712,158.32770002828056 L527.5812904340712,158.32770002828056 L527.5812904340712,155.32770002828056 L509.80757050078614,155.32770002828056 L509.80757050078614,200.8751398948507 L527.5812904340712,200.8751398948507 L527.5812904340712,197.8751398948507 L522.5812904340712,197.8751398948507 L522.5812904340712,194.8751398948507 L532.5812904340712,194.8751398948507 L532.5812904340712,197.8751398948507 L532.5812904340712,200.8751398948507 L532.5812904340712,205.8751398948507 L504.80757050078614,205.8751398948507 L504.80757050078614,200.8751398948507 L504.80757050078614,183.10141996156563 Z" style="stroke:#ff0000;stroke-width:0;" qs:layer="2 - Externa"/>
        <!-- Polilinha -->
        <path d="M377.32165024860967,205.8751398948507 L367.32165024860967,205.8751398948507 L367.32165024860967,195.8751398948507 L377.32165024860967,195.8751398948507 Z" style="stroke:#000000;stroke-width:0;" qs:layer="0"/>
        <!-- Polilinha -->
        <path d="M202.06201006314814,205.8751398948507 L192.06201006314814,205.8751398948507 L192.06201006314814,195.8751398948507 L202.06201006314814,195.8751398948507 Z" style="stroke:#000000;stroke-width:0;" qs:layer="0"/>
        <!-- Polilinha -->
        <path d="M217.06201006314814,95.44879316355373 L217.06201006314814,45.39577455232306 L207.06201006314808,47.13860906694309 L207.0620100631481,95.44879316355374 Z" style="stroke:#00ff00;stroke-width:0;" qs:layer="1 - Interna"/>
        <!-- Polilinha -->
        <path d="M223.06201006314814,96.44879316355366 L223.06201006314814,72.19879316355366 L222.06201006314814,72.19879316355366 L222.06201006314814,96.44879316355366 Z" style="stroke:#00ff00;stroke-width:0;" qs:layer="1 - Interna"/>
        <!-- Polilinha -->
        <path d="M227.06201006314814,96.44879316355366 L227.06201006314814,72.19879316355366 L226.06201006314814,72.19879316355366 L226.06201006314814,96.44879316355366 Z" style="stroke:#00ff00;stroke-width:0;" qs:layer="1 - Interna"/>
        <!-- Polilinha -->
        <path d="M231.06201006314814,96.44879316355366 L231.06201006314814,72.19879316355366 L230.06201006314814,72.19879316355366 L230.06201006314814,96.44879316355366 Z" style="stroke:#00ff00;stroke-width:0;" qs:layer="1 - Interna"/>
        <!-- Polilinha -->
        <path d="M217.0620100631481,139.39577455232322 L217.06201006314814,98.44879316355373 L207.06201006314814,98.44879316355374 L207.06201006314814,141.13860906694325 Z" style="stroke:#00ff00;stroke-width:0;" qs:layer="1 - Interna"/>
        <!-- Polilinha -->
        <path d="M235.06201006314814,96.44879316355366 L235.06201006314814,72.19879316355366 L234.06201006314814,72.19879316355366 L234.06201006314814,96.44879316355366 Z" style="stroke:#00ff00;stroke-width:0;" qs:layer="1 - Interna"/>
        <!-- Polilinha -->
        <path d="M223.06201006314814,121.69879316355366 L223.06201006314814,97.44879316355366 L222.06201006314814,97.44879316355366 L222.06201006314814,121.69879316355366 Z" style="stroke:#00ff00;stroke-width:0;" qs:layer="1 - Interna"/>
        <!-- Polilinha -->
        <path d="M239.06201006314814,96.44879316355366 L239.06201006314814,72.19879316355366 L238.06201006314814,72.19879316355366 L238.06201006314814,96.44879316355366 Z" style="stroke:#00ff00;stroke-width:0;" qs:layer="1 - Interna"/>
        <!-- Polilinha -->
        <path d="M221.06201006314814,140.97310053345666 L221.06201006314814,43.06925824817698 L220.06201006314808,43.06925824817698 L220.06201006314814,140.97310053345666 Z" style="stroke:#00ff00;stroke-width:0;" qs:layer="1 - Interna"/>
        <!-- Polilinha -->
        <path d="M243.06201006314814,96.44879316355366 L243.06201006314814,72.19879316355366 L242.06201006314814,72.19879316355366 L242.06201006314814,96.44879316355366 Z" style="stroke:#00ff00;stroke-width:0;" qs:layer="1 - Interna"/>
        <!-- Polilinha -->
        <path d="M227.06201006314814,121.69879316355366 L227.06201006314814,97.44879316355366 L226.06201006314814,97.44879316355366 L226.06201006314814,121.69879316355366 Z" style="stroke:#00ff00;stroke-width:0;" qs:layer="1 - Interna"/>
        <!-- Polilinha -->
        <path d="M225.06201006314814,140.64282623455347 L225.06201006314814,42.64282623455348 L224.0620100631481,42.64282623455348 L224.06201006314814,140.64282623455347 Z" style="stroke:#00ff00;stroke-width:0;" qs:layer="1 - Interna"/>
        <!-- Polilinha -->
        <path d="M247.06201006314814,96.44879316355366 L247.06201006314814,72.19879316355366 L246.06201006314814,72.19879316355366 L246.06201006314814,96.44879316355366 Z" style="stroke:#00ff00;stroke-width:0;" qs:layer="1 - Interna"/>
        <!-- Polilinha -->
        <path d="M231.06201006314814,121.69879316355366 L231.06201006314814,97.44879316355366 L230.06201006314814,97.44879316355366 L230.06201006314814,121.69879316355366 Z" style="stroke:#00ff00;stroke-width:0;" qs:layer="1 - Interna"/>
        <!-- Polilinha -->
        <path d="M251.06201006314814,96.44879316355366 L251.06201006314814,72.19879316355366 L250.06201006314814,72.19879316355366 L250.06201006314814,96.44879316355366 Z" style="stroke:#00ff00;stroke-width:0;" qs:layer="1 - Interna"/>
        <!-- Polilinha -->
        <path d="M229.06201006314814,140.38846204198018 L229.06201006314814,42.44556580054284 L228.0620100631481,42.44556580054284 L228.06201006314814,140.38846204198018 Z" style="stroke:#00ff00;stroke-width:0;" qs:layer="1 - Interna"/>
        <!-- Polilinha -->
        <path d="M255.06201006314814,96.44879316355366 L255.06201006314814,72.19879316355366 L254.06201006314814,72.19879316355366 L254.06201006314814,96.44879316355366 Z" style="stroke:#00ff00;stroke-width:0;" qs:layer="1 - Interna"/>
        <!-- Polilinha -->
        <path d="M235.06201006314814,121.69879316355366 L235.06201006314814,97.44879316355366 L234.06201006314814,97.44879316355366 L234.06201006314814,121.69879316355366 Z" style="stroke:#00ff00;stroke-width:0;" qs:layer="1 - Interna"/>
        <!-- Polilinha -->
        <path d="M259.06201006314814,96.44879316355366 L259.06201006314814,72.19879316355366 L258.06201006314814,72.19879316355366 L258.06201006314814,96.44879316355366 Z" style="stroke:#00ff00;stroke-width:0;" qs:layer="1 - Interna"/>
        <!-- Polilinha -->
        <path d="M233.06201006314814,140.1999229668206 L233.06201006314814,42.24128228231346 L232.0620100631481,42.24128228231346 L232.06201006314814,140.1999229668206 Z" style="stroke:#00ff00;stroke-width:0;" qs:layer="1 - Interna"/>
        <!-- Polilinha -->
        <path d="M263.06201006314814,96.44879316355366 L263.06201006314814,72.19879316355366 L262.06201006314814,72.19879316355366 L262.06201006314814,96.44879316355366 Z" style="stroke:#00ff00;stroke-width:0;" qs:layer="1 - Interna"/>
        <!-- Polilinha -->
        <path d="M239.06201006314814,121.69879316355366 L239.06201006314814,97.44879316355366 L238.06201006314814,97.44879316355366 L238.06201006314814,121.69879316355366 Z" style="stroke:#00ff00;stroke-width:0;" qs:layer="1 - Interna"/>
        <!-- Polilinha -->
        <path d="M267.06201006314814,96.44879316355366 L267.06201006314814,72.19879316355366 L266.06201006314814,72.19879316355366 L266.06201006314814,96.44879316355366 Z" style="stroke:#00ff00;stroke-width:0;" qs:layer="1 - Interna"/>
        <!-- Polilinha -->
        <path d="M237.06201006314814,140.07087141146422 L237.06201006314814,42.07087141146424 L236.06201006314814,42.07087141146424 L236.06201006314814,140.07087141146425 Z" style="stroke:#00ff00;stroke-width:0;" qs:layer="1 - Interna"/>
        <!-- Polilinha -->
        <path d="M282.06201006314814,95.44879316355366 L282.06201006314814,47.13860906694315 L272.06201006314814,45.39577455232309 L272.06201006314814,95.44879316355366 Z" style="stroke:#00ff00;stroke-width:0;" qs:layer="1 - Interna"/>
        <!-- Polilinha -->
        <path d="M243.06201006314814,121.69879316355366 L243.06201006314814,97.44879316355366 L242.06201006314814,97.44879316355366 L242.06201006314814,121.69879316355366 Z" style="stroke:#00ff00;stroke-width:0;" qs:layer="1 - Interna"/>
        <!-- Polilinha -->
        <path d="M241.06201006314814,140.01072056019137 L241.06201006314814,42.01072056019139 L240.06201006314814,42.01072056019137 L240.06201006314814,140.01072056019137 Z" style="stroke:#00ff00;stroke-width:0;" qs:layer="1 - Interna"/>
        <!-- Polilinha -->
        <path d="M247.06201006314814,121.69879316355366 L247.06201006314814,97.44879316355366 L246.06201006314814,97.44879316355366 L246.06201006314814,121.69879316355366 Z" style="stroke:#00ff00;stroke-width:0;" qs:layer="1 - Interna"/>
        <!-- Polilinha -->
        <path d="M245.06201006314814,139.9775652349242 L245.06201006314814,41.97756523492424 L244.06201006314814,41.977565234924214 L244.06201006314814,139.9775652349242 Z" style="stroke:#00ff00;stroke-width:0;" qs:layer="1 - Interna"/>
        <!-- Polilinha -->
        <path d="M251.06201006314814,121.69879316355366 L251.06201006314814,97.44879316355366 L250.06201006314814,97.44879316355366 L250.06201006314814,121.69879316355366 Z" style="stroke:#00ff00;stroke-width:0;" qs:layer="1 - Interna"/>
        <!-- Polilinha -->
        <path d="M255.06201006314814,121.69879316355366 L255.06201006314814,97.44879316355366 L254.06201006314814,97.44879316355366 L254.06201006314814,121.69879316355366 Z" style="stroke:#00ff00;stroke-width:0;" qs:layer="1 - Interna"/>
        <!-- Polilinha -->
        <path d="M249.06201006314814,140.01072056019137 L249.06201006314814,42.01072056019139 L248.06201006314814,42.01072056019137 L248.06201006314814,140.01072056019137 Z" style="stroke:#00ff00;stroke-width:0;" qs:layer="1 - Interna"/>
        <!-- Polilinha -->
        <path d="M259.06201006314814,121.69879316355366 L259.06201006314814,97.44879316355366 L258.06201006314814,97.44879316355366 L258.06201006314814,121.69879316355366 Z" style="stroke:#00ff00;stroke-width:0;" qs:layer="1 - Interna"/>
        <!-- Polilinha -->
        <path d="M253.06201006314814,42.07087141146428 L252.06201006314814,42.07087141146425 L252.06201006314814,140.07087141146422 L253.06201006314814,140.07087141146425 Z" style="stroke:#00ff00;stroke-width:0;" qs:layer="1 - Interna"/>
        <!-- Polilinha -->
        <path d="M263.06201006314814,121.69879316355366 L263.06201006314814,97.44879316355366 L262.06201006314814,97.44879316355366 L262.06201006314814,121.69879316355366 Z" style="stroke:#00ff00;stroke-width:0;" qs:layer="1 - Interna"/>
        <!-- Polilinha -->
        <path d="M257.06201006314814,140.1999229668206 L257.06201006314814,42.24128228231345 L256.06201006314814,42.24128228231346 L256.06201006314814,140.1999229668206 Z" style="stroke:#00ff00;stroke-width:0;" qs:layer="1 - Interna"/>
        <!-- Polilinha -->
        <path d="M267.06201006314814,121.69879316355366 L267.06201006314814,97.44879316355366 L266.06201006314814,97.44879316355366 L266.06201006314814,121.69879316355366 Z" style="stroke:#00ff00;stroke-width:0;" qs:layer="1 - Interna"/>
        <!-- Polilinha -->
        <path d="M261.06201006314814,140.38846204198018 L261.06201006314814,42.44556580054282 L260.06201006314814,42.4455658005429 L260.06201006314814,140.38846204198018 Z" style="stroke:#00ff00;stroke-width:0;" qs:layer="1 - Interna"/>
        <!-- Polilinha -->
        <path d="M265.06201006314814,42.64282623455348 L264.0620100631504,42.64282623455348 L264.06201006314814,140.64282623455347 L265.06201006314814,140.64282623455347 Z" style="stroke:#00ff00;stroke-width:0;" qs:layer="1 - Interna"/>
        <!-- Polilinha -->
        <path d="M269.06201006314814,140.97310053345666 L269.06201006314814,43.06925824817698 L268.06201006314814,43.06925824817698 L268.06201006314814,140.9731005334567 Z" style="stroke:#00ff00;stroke-width:0;" qs:layer="1 - Interna"/>
        <!-- Polilinha -->
        <path d="M282.0620100631481,141.13860906694325 L282.06201006314814,98.44879316355366 L272.06201006314814,98.44879316355366 L272.06201006314814,139.39577455232322 Z" style="stroke:#00ff00;stroke-width:0;" qs:layer="1 - Interna"/>
        <!-- Polilinha -->
        <path d="M462.32165024860967,146.94879316355374 L442.32165024860967,141.8826617366424 L442.32165024860967,122.69879316355369 L441.32165024860967,122.69879316355369 L441.32165024860967,141.57259442801168 L438.32165024860967,141.57259442801168 L438.32165024860967,122.69879316355369 L437.32165024860967,122.69879316355369 L437.3216502486484,141.33545482698412 L434.32165024860967,141.33545482698412 L434.32165024860967,122.69879316355369 L433.32165024860967,122.69879316355369 L433.32165024860967,141.16226994619663 L430.32165024860967,141.16226994619663 L430.32165024860967,122.69879316355369 L429.32165024860967,122.69879316355369 L429.32165024860967,141.04740656067165 L426.32165024860967,141.04740656067165 L426.32165024860967,122.69879316355369 L425.32165024860967,122.69879316355369 L425.3216502486102,141.02736783882142 L422.32165024860967,141.02736783882142 L422.32165024860967,122.69879316355369 L421.32165024860967,122.69879316355369 L421.32165024860967,140.9808724785613 L418.32165024860967,140.9808724785613 L418.32165024860967,122.69879316355369 L417.32165024860967,122.69879316355369 L417.32165024860967,141.02736783882142 L414.32165024860967,141.02736783882142 L414.32165024860967,122.69879316355369 L413.32165024860967,122.69879316355369 L413.3216502486096,141.04740656067165 L410.32165024860967,141.04740656067165 L410.32165024860967,122.69879316355369 L409.32165024860967,122.69879316355369 L409.32165024860967,141.16226994619663 L406.32165024860967,141.16226994619663 L406.32165024860967,122.69879316355369 L405.32165024860967,122.69879316355369 L405.32165024860967,141.33545482698412 L402.32165024860967,141.33545482698412 L402.32165024860967,122.69879316355369 L401.32165024860967,122.69879316355369 L401.32165024860967,141.57259442801168 L398.32165024860967,141.57259442801168 L398.32165024860967,122.69879316355369 L397.32165024860967,122.69879316355369 L397.32165024860967,141.8826617366424 L377.32165024860967,146.94879316355374 L377.32165024860967,46.948793163553674 L397.32165024860967,41.88266173664233 L397.32165024860967,71.19879316355369 L398.32165024860967,71.19879316355369 L398.32165024860967,46.94879316355369 L398.321650248602,41.79764062776273 L401.32165024860967,41.79764062776273 L401.32165024860967,59.07379316355369 L401.32165024860967,71.19879316355369 L402.32165024860967,71.19879316355369 L402.32165024860967,46.94879316355369 L402.32165024860967,41.50689506057907 L405.32165024860967,41.50689506057907 L405.32165024860967,59.07379316355369 L405.32165024860967,71.19879316355369 L406.32165024860967,71.19879316355369 L406.32165024860967,46.94879316355369 L406.32165024860967,41.28642910719161 L409.32165024860967,41.28642910719161 L409.32165024860967,59.07379316355369 L409.32165024860967,71.19879316355369 L410.32165024860967,71.19879316355369 L410.32165024860967,46.94879316355369 L410.32165024860967,41.12825129205625 L413.32165024860967,41.12825129205625 L413.32165024860967,59.07379316355369 L413.32165024860967,71.19879316355369 L414.32165024860967,71.19879316355369 L414.32165024860967,46.94879316355369 L414.32165024860967,41.02736783882135 L417.32165024860967,41.02736783882135 L417.32165024860967,59.07379316355369 L417.32165024860967,71.19879316355369 L418.32165024860967,71.19879316355369 L418.32165024860967,46.94879316355369 L418.32165024860967,40.98087247856125 L421.32165024860967,40.98087247856125 L421.32165024860967,59.07379316355369 L421.32165024860967,71.19879316355369 L422.32165024860967,71.19879316355369 L422.32165024860967,46.94879316355369 L422.32165024861314,41.02736783882135 L425.32165024860967,41.02736783882135 L425.32165024860967,59.07379316355369 L425.32165024860967,71.19879316355369 L426.32165024860967,71.19879316355369 L426.32165024860967,46.94879316355369 L426.32165024860967,41.12825129205625 L429.32165024860967,41.12825129205625 L429.32165024860967,59.07379316355369 L429.32165024860967,71.19879316355369 L430.32165024860967,71.19879316355369 L430.32165024860967,46.94879316355369 L430.32165024860967,41.28642910719161 L433.32165024860967,41.28642910719162 L433.32165024860967,59.07379316355369 L433.32165024860967,71.19879316355369 L434.32165024860967,71.19879316355369 L434.32165024860967,46.94879316355369 L434.32165024860967,41.50689506057907 L437.32165024860967,41.506895060579055 L437.32165024860967,59.07379316355369 L437.32165024860967,71.19879316355369 L438.32165024860967,71.19879316355369 L438.32165024860967,46.94879316355369 L438.32165024860967,41.79764062776273 L441.32165024860967,41.79764062776216 L441.32165024860967,59.07379316355369 L441.32165024860967,71.19879316355369 L442.32165024860967,71.19879316355369 L442.32165024860967,41.88266173664233 L462.32165024860967,46.948793163553674 Z" style="stroke:#ff0000;stroke-width:0;" qs:layer="2 - Externa"/>
    </g>
</svg>
