<?xml version="1.0" encoding="UTF-8"?>
<!-- 2017-10-16 02:42:06 Generated by QCAD SVG Exporter PG -->
<svg width="346.093485626287mm" height="209.99999999999997mm" viewBox="203.86521403403572 -266.66121237497237 346.093485626287 209.99999999999997" version="1.1" xmlns="http://www.w3.org/2000/svg" style="stroke-linecap:round;stroke-linejoin:round;fill:none" xmlns:qs="http://qcad.org/namespaces/svg" xmlns:sodipodi="http://sodipodi.sourceforge.net/DTD/sodipodi-0.dtd" xmlns:inkscape="http://www.inkscape.org/namespaces/inkscape">
    <sodipodi:namedview inkscape:document-units="mm" unitToSymbol="mm" units="mm"/>
    <g transform="scale(1,-1)">
        <!-- Polilinha -->
        <path d="M283.8652140340357,208.16121237497245 L283.8652140340357,253.6612123749724 L293.8652140340357,253.6612123749724 L293.8652140340357,208.1612123749724 Z" style="stroke:#00ff00;stroke-width:0;" qs:layer="1 - Interna"/>
        <!-- Polilinha -->
        <path d="M283.8652140340357,105.16121237497242 L293.8652140340357,105.16121237497242 L293.8652140340357,59.661212374972386 L283.8652140340357,59.661212374972386 Z" style="stroke:#00ff00;stroke-width:0;" qs:layer="1 - Interna"/>
        <!-- Polilinha -->
        <path d="M277.8652140340357,207.1612123749724 L277.8652140340357,231.4112123749724 L278.8652140340357,231.4112123749724 L278.8652140340357,207.1612123749724 Z" style="stroke:#00ff00;stroke-width:0;" qs:layer="1 - Interna"/>
        <!-- Polilinha -->
        <path d="M277.8652140340357,106.16121237497242 L278.8652140340357,106.16121237497242 L278.8652140340357,81.91121237497242 L277.8652140340357,81.91121237497242 Z" style="stroke:#00ff00;stroke-width:0;" qs:layer="1 - Interna"/>
        <!-- Polilinha -->
        <path d="M273.8652140340357,207.1612123749724 L273.8652140340357,231.4112123749724 L274.8652140340357,231.4112123749724 L274.8652140340357,207.1612123749724 Z" style="stroke:#00ff00;stroke-width:0;" qs:layer="1 - Interna"/>
        <!-- Polilinha -->
        <path d="M273.8652140340357,106.16121237497242 L274.8652140340357,106.16121237497242 L274.8652140340357,81.91121237497242 L273.8652140340357,81.91121237497242 Z" style="stroke:#00ff00;stroke-width:0;" qs:layer="1 - Interna"/>
        <!-- Polilinha -->
        <path d="M269.8652140340357,207.1612123749724 L269.8652140340357,231.4112123749724 L270.8652140340357,231.4112123749724 L270.8652140340357,207.1612123749724 Z" style="stroke:#00ff00;stroke-width:0;" qs:layer="1 - Interna"/>
        <!-- Polilinha -->
        <path d="M269.8652140340357,106.16121237497242 L270.8652140340357,106.16121237497242 L270.8652140340357,81.91121237497242 L269.8652140340357,81.91121237497242 Z" style="stroke:#00ff00;stroke-width:0;" qs:layer="1 - Interna"/>
        <!-- Polilinha -->
        <path d="M265.8652140340357,207.1612123749724 L265.8652140340357,231.4112123749724 L266.8652140340357,231.4112123749724 L266.8652140340357,207.1612123749724 Z" style="stroke:#00ff00;stroke-width:0;" qs:layer="1 - Interna"/>
        <!-- Polilinha -->
        <path d="M265.8652140340357,106.16121237497242 L266.8652140340357,106.16121237497242 L266.8652140340357,81.91121237497242 L265.8652140340357,81.91121237497242 Z" style="stroke:#00ff00;stroke-width:0;" qs:layer="1 - Interna"/>
        <!-- Polilinha -->
        <path d="M261.8652140340357,207.1612123749724 L261.8652140340357,231.41121237497245 L262.8652140340357,231.4112123749724 L262.8652140340357,207.1612123749724 Z" style="stroke:#00ff00;stroke-width:0;" qs:layer="1 - Interna"/>
        <!-- Polilinha -->
        <path d="M261.8652140340357,106.16121237497242 L262.8652140340357,106.16121237497242 L262.8652140340357,81.91121237497242 L261.8652140340357,81.91121237497242 Z" style="stroke:#00ff00;stroke-width:0;" qs:layer="1 - Interna"/>
        <!-- Polilinha -->
        <path d="M257.8652140340357,207.1612123749724 L257.8652140340357,231.4112123749724 L258.8652140340357,231.4112123749724 L258.8652140340357,207.1612123749724 Z" style="stroke:#00ff00;stroke-width:0;" qs:layer="1 - Interna"/>
        <!-- Polilinha -->
        <path d="M257.8652140340357,106.16121237497242 L258.8652140340357,106.16121237497242 L258.8652140340357,81.91121237497242 L257.8652140340357,81.91121237497242 Z" style="stroke:#00ff00;stroke-width:0;" qs:layer="1 - Interna"/>
        <!-- Polilinha -->
        <path d="M283.8652140340357,159.6612123749724 L283.8652140340357,205.1612123749724 L293.8652140340357,205.1612123749724 L293.8652140340357,159.6612123749724 Z" style="stroke:#00ff00;stroke-width:0;" qs:layer="1 - Interna"/>
        <!-- Polilinha -->
        <path d="M283.86521403403583,153.6612123749724 L293.8652140340357,153.6612123749724 L293.8652140340357,108.16121237497242 L283.8652140340357,108.16121237497242 Z" style="stroke:#00ff00;stroke-width:0;" qs:layer="1 - Interna"/>
        <!-- Polilinha -->
        <path d="M277.8652140340357,181.9112123749724 L277.8652140340357,206.1612123749724 L278.8652140340357,206.1612123749724 L278.8652140340357,181.9112123749724 Z" style="stroke:#00ff00;stroke-width:0;" qs:layer="1 - Interna"/>
        <!-- Polilinha -->
        <path d="M277.8652140340357,131.41121237497242 L278.8652140340357,131.41121237497242 L278.8652140340357,107.16121237497242 L277.8652140340357,107.16121237497242 Z" style="stroke:#00ff00;stroke-width:0;" qs:layer="1 - Interna"/>
        <!-- Polilinha -->
        <path d="M253.86521403403572,207.1612123749724 L253.86521403403572,231.41121237497245 L254.86521403403572,231.4112123749724 L254.86521403403572,207.1612123749724 Z" style="stroke:#00ff00;stroke-width:0;" qs:layer="1 - Interna"/>
        <!-- Polilinha -->
        <path d="M253.86521403403572,106.16121237497242 L254.86521403403572,106.16121237497242 L254.86521403403572,81.91121237497242 L253.86521403403572,81.91121237497242 Z" style="stroke:#00ff00;stroke-width:0;" qs:layer="1 - Interna"/>
        <!-- Polilinha -->
        <path d="M249.86521403403572,207.1612123749724 L249.86521403403572,231.4112123749724 L250.86521403403572,231.4112123749724 L250.86521403403572,207.1612123749724 Z" style="stroke:#00ff00;stroke-width:0;" qs:layer="1 - Interna"/>
        <!-- Polilinha -->
        <path d="M249.86521403403572,106.16121237497242 L250.86521403403572,106.16121237497242 L250.86521403403572,81.91121237497242 L249.86521403403572,81.91121237497242 Z" style="stroke:#00ff00;stroke-width:0;" qs:layer="1 - Interna"/>
        <!-- Polilinha -->
        <path d="M279.8652140340357,157.6612123749724 L279.8652140340357,255.6612123749724 L280.8652140340357,255.6612123749724 L280.8652140340357,157.6612123749724 Z" style="stroke:#00ff00;stroke-width:0;" qs:layer="1 - Interna"/>
        <!-- Polilinha -->
        <path d="M279.86521403403583,155.6612123749724 L280.8652140340357,155.6612123749724 L280.8652140340357,57.661212374972386 L279.8652140340357,57.661212374972386 Z" style="stroke:#00ff00;stroke-width:0;" qs:layer="1 - Interna"/>
        <!-- Polilinha -->
        <path d="M273.8652140340357,181.9112123749724 L273.8652140340357,206.1612123749724 L274.8652140340357,206.1612123749724 L274.8652140340357,181.9112123749724 Z" style="stroke:#00ff00;stroke-width:0;" qs:layer="1 - Interna"/>
        <!-- Polilinha -->
        <path d="M273.8652140340357,131.41121237497242 L274.8652140340357,131.41121237497242 L274.8652140340357,107.16121237497242 L273.8652140340357,107.16121237497242 Z" style="stroke:#00ff00;stroke-width:0;" qs:layer="1 - Interna"/>
        <!-- Polilinha -->
        <path d="M245.86521403403572,207.16121237497245 L245.86521403403572,231.4112123749724 L246.86521403403572,231.4112123749724 L246.86521403403572,207.1612123749724 Z" style="stroke:#00ff00;stroke-width:0;" qs:layer="1 - Interna"/>
        <!-- Polilinha -->
        <path d="M245.86521403403572,106.16121237497242 L246.86521403403572,106.16121237497242 L246.86521403403572,81.91121237497242 L245.86521403403572,81.91121237497242 Z" style="stroke:#00ff00;stroke-width:0;" qs:layer="1 - Interna"/>
        <!-- Polilinha -->
        <path d="M277.8652140340357,156.6612123749724 L277.8652140340357,180.9112123749724 L278.8652140340357,180.9112123749724 L278.8652140340357,156.6612123749724 L278.8652140340357,132.41121237497242 L277.8652140340357,132.41121237497242 Z" style="stroke:#00ff00;stroke-width:0;" qs:layer="1 - Interna"/>
        <!-- Polilinha -->
        <path d="M241.86521403403572,207.1612123749724 L241.86521403403572,231.4112123749724 L242.86521403403572,231.4112123749724 L242.86521403403572,207.1612123749724 Z" style="stroke:#00ff00;stroke-width:0;" qs:layer="1 - Interna"/>
        <!-- Polilinha -->
        <path d="M241.86521403403572,106.16121237497242 L242.86521403403572,106.16121237497242 L242.86521403403572,81.91121237497242 L241.86521403403572,81.91121237497242 Z" style="stroke:#00ff00;stroke-width:0;" qs:layer="1 - Interna"/>
        <!-- Polilinha -->
        <path d="M269.8652140340357,181.9112123749724 L269.8652140340357,206.1612123749724 L270.8652140340357,206.1612123749724 L270.8652140340357,181.9112123749724 Z" style="stroke:#00ff00;stroke-width:0;" qs:layer="1 - Interna"/>
        <!-- Polilinha -->
        <path d="M269.8652140340357,131.41121237497242 L270.8652140340357,131.41121237497242 L270.8652140340357,107.16121237497242 L269.8652140340357,107.16121237497242 Z" style="stroke:#00ff00;stroke-width:0;" qs:layer="1 - Interna"/>
        <!-- Polilinha -->
        <path d="M275.8652140340357,157.6612123749724 L275.8652140340357,255.6612123749724 L276.8652140340357,255.6612123749724 L276.8652140340357,157.6612123749724 Z" style="stroke:#00ff00;stroke-width:0;" qs:layer="1 - Interna"/>
        <!-- Polilinha -->
        <path d="M275.86521403403594,155.6612123749724 L276.8652140340357,155.6612123749724 L276.8652140340357,57.661212374972386 L275.8652140340357,57.661212374972386 Z" style="stroke:#00ff00;stroke-width:0;" qs:layer="1 - Interna"/>
        <!-- Polilinha -->
        <path d="M237.86521403403572,207.16121237497245 L237.86521403403572,231.4112123749724 L238.86521403403572,231.4112123749724 L238.86521403403572,207.1612123749724 Z" style="stroke:#00ff00;stroke-width:0;" qs:layer="1 - Interna"/>
        <!-- Polilinha -->
        <path d="M237.86521403403572,106.16121237497242 L238.86521403403572,106.16121237497242 L238.86521403403572,81.91121237497242 L237.86521403403572,81.91121237497242 Z" style="stroke:#00ff00;stroke-width:0;" qs:layer="1 - Interna"/>
        <!-- Polilinha -->
        <path d="M233.86521403403572,207.16121237497245 L233.86521403403572,231.4112123749724 L234.86521403403572,231.4112123749724 L234.86521403403572,207.1612123749724 Z" style="stroke:#00ff00;stroke-width:0;" qs:layer="1 - Interna"/>
        <!-- Polilinha -->
        <path d="M233.86521403403572,106.16121237497242 L234.86521403403572,106.16121237497242 L234.86521403403572,81.91121237497242 L233.86521403403572,81.91121237497242 Z" style="stroke:#00ff00;stroke-width:0;" qs:layer="1 - Interna"/>
        <!-- Polilinha -->
        <path d="M218.86521403403572,208.1612123749725 L218.86521403403572,253.6612123749725 L228.86521403403572,253.6612123749725 L228.86521403403572,208.1612123749725 Z" style="stroke:#00ff00;stroke-width:0;" qs:layer="1 - Interna"/>
        <!-- Polilinha -->
        <path d="M228.86521403403572,105.16121237497251 L228.86521403403572,59.6612123749725 L218.86521403403572,59.6612123749725 L218.86521403403572,105.16121237497251 Z" style="stroke:#00ff00;stroke-width:0;" qs:layer="1 - Interna"/>
        <!-- Polilinha -->
        <path d="M273.8652140340357,156.6612123749724 L273.8652140340357,180.9112123749724 L274.8652140340357,180.9112123749724 L274.8652140340357,156.6612123749724 L274.8652140340357,132.41121237497242 L273.8652140340357,132.41121237497242 Z" style="stroke:#00ff00;stroke-width:0;" qs:layer="1 - Interna"/>
        <!-- Polilinha -->
        <path d="M265.8652140340357,181.9112123749724 L265.8652140340357,206.1612123749724 L266.8652140340357,206.1612123749724 L266.8652140340357,181.9112123749724 Z" style="stroke:#00ff00;stroke-width:0;" qs:layer="1 - Interna"/>
        <!-- Polilinha -->
        <path d="M265.8652140340357,131.41121237497242 L266.8652140340357,131.41121237497242 L266.8652140340357,107.16121237497242 L265.8652140340357,107.16121237497242 Z" style="stroke:#00ff00;stroke-width:0;" qs:layer="1 - Interna"/>
        <!-- Polilinha -->
        <path d="M271.8652140340357,157.6612123749724 L271.8652140340357,255.6612123749724 L272.8652140340357,255.6612123749724 L272.8652140340357,157.6612123749724 Z" style="stroke:#00ff00;stroke-width:0;" qs:layer="1 - Interna"/>
        <!-- Polilinha -->
        <path d="M271.86521403403583,155.6612123749724 L272.8652140340357,155.6612123749724 L272.8652140340357,57.661212374972386 L271.8652140340357,57.661212374972386 Z" style="stroke:#00ff00;stroke-width:0;" qs:layer="1 - Interna"/>
        <!-- Polilinha -->
        <path d="M269.8652140340357,156.6612123749724 L269.8652140340357,180.9112123749724 L270.8652140340357,180.9112123749724 L270.8652140340357,156.6612123749724 L270.8652140340357,132.41121237497242 L269.8652140340357,132.41121237497242 Z" style="stroke:#00ff00;stroke-width:0;" qs:layer="1 - Interna"/>
        <!-- Polilinha -->
        <path d="M261.8652140340357,181.9112123749724 L261.8652140340357,206.1612123749724 L262.8652140340357,206.1612123749724 L262.8652140340357,181.9112123749724 Z" style="stroke:#00ff00;stroke-width:0;" qs:layer="1 - Interna"/>
        <!-- Polilinha -->
        <path d="M261.8652140340357,131.41121237497242 L262.8652140340357,131.41121237497242 L262.8652140340357,107.16121237497242 L261.8652140340357,107.16121237497242 Z" style="stroke:#00ff00;stroke-width:0;" qs:layer="1 - Interna"/>
        <!-- Polilinha -->
        <path d="M267.8652140340357,157.6612123749724 L267.8652140340357,255.6612123749724 L268.8652140340357,255.6612123749724 L268.8652140340357,157.6612123749724 Z" style="stroke:#00ff00;stroke-width:0;" qs:layer="1 - Interna"/>
        <!-- Polilinha -->
        <path d="M267.86521403403594,155.6612123749724 L268.8652140340357,155.6612123749724 L268.8652140340357,57.661212374972386 L267.8652140340357,57.661212374972386 Z" style="stroke:#00ff00;stroke-width:0;" qs:layer="1 - Interna"/>
        <!-- Polilinha -->
        <path d="M257.8652140340357,181.9112123749724 L257.8652140340357,206.1612123749724 L258.8652140340357,206.1612123749724 L258.8652140340357,181.9112123749724 Z" style="stroke:#00ff00;stroke-width:0;" qs:layer="1 - Interna"/>
        <!-- Polilinha -->
        <path d="M257.8652140340357,131.41121237497242 L258.8652140340357,131.41121237497242 L258.8652140340357,107.16121237497242 L257.8652140340357,107.16121237497242 Z" style="stroke:#00ff00;stroke-width:0;" qs:layer="1 - Interna"/>
        <!-- Polilinha -->
        <path d="M265.8652140340357,156.6612123749724 L265.8652140340357,180.9112123749724 L266.8652140340357,180.9112123749724 L266.8652140340357,156.6612123749724 L266.8652140340357,132.41121237497242 L265.8652140340357,132.41121237497242 Z" style="stroke:#00ff00;stroke-width:0;" qs:layer="1 - Interna"/>
        <!-- Polilinha -->
        <path d="M263.8652140340357,157.6612123749724 L263.8652140340357,255.6612123749724 L264.8652140340357,255.6612123749724 L264.8652140340357,157.6612123749724 Z" style="stroke:#00ff00;stroke-width:0;" qs:layer="1 - Interna"/>
        <!-- Polilinha -->
        <path d="M263.86521403403583,155.6612123749724 L264.8652140340357,155.6612123749724 L264.8652140340357,57.661212374972386 L263.8652140340357,57.661212374972386 Z" style="stroke:#00ff00;stroke-width:0;" qs:layer="1 - Interna"/>
        <!-- Polilinha -->
        <path d="M253.86521403403572,181.9112123749724 L253.86521403403572,206.1612123749724 L254.86521403403572,206.1612123749724 L254.86521403403572,181.9112123749724 Z" style="stroke:#00ff00;stroke-width:0;" qs:layer="1 - Interna"/>
        <!-- Polilinha -->
        <path d="M253.86521403403572,131.41121237497242 L254.86521403403572,131.41121237497242 L254.86521403403572,107.16121237497242 L253.86521403403572,107.16121237497242 Z" style="stroke:#00ff00;stroke-width:0;" qs:layer="1 - Interna"/>
        <!-- Polilinha -->
        <path d="M261.8652140340357,156.6612123749724 L261.8652140340357,180.9112123749724 L262.8652140340357,180.9112123749724 L262.8652140340357,156.6612123749724 L262.8652140340357,132.41121237497242 L261.8652140340357,132.41121237497242 Z" style="stroke:#00ff00;stroke-width:0;" qs:layer="1 - Interna"/>
        <!-- Polilinha -->
        <path d="M259.8652140340357,157.6612123749724 L259.8652140340357,255.6612123749724 L260.8652140340357,255.6612123749724 L260.8652140340357,157.6612123749724 Z" style="stroke:#00ff00;stroke-width:0;" qs:layer="1 - Interna"/>
        <!-- Polilinha -->
        <path d="M259.86521403403583,155.6612123749724 L260.8652140340357,155.6612123749724 L260.8652140340357,57.661212374972386 L259.8652140340357,57.661212374972386 Z" style="stroke:#00ff00;stroke-width:0;" qs:layer="1 - Interna"/>
        <!-- Polilinha -->
        <path d="M249.86521403403572,181.9112123749724 L249.86521403403572,206.1612123749724 L250.86521403403572,206.1612123749724 L250.86521403403572,181.9112123749724 Z" style="stroke:#00ff00;stroke-width:0;" qs:layer="1 - Interna"/>
        <!-- Polilinha -->
        <path d="M249.86521403403572,131.41121237497242 L250.86521403403572,131.41121237497242 L250.86521403403572,107.16121237497242 L249.86521403403572,107.16121237497242 Z" style="stroke:#00ff00;stroke-width:0;" qs:layer="1 - Interna"/>
        <!-- Polilinha -->
        <path d="M257.8652140340357,156.6612123749724 L257.8652140340357,180.9112123749724 L258.8652140340357,180.9112123749724 L258.8652140340357,156.6612123749724 L258.8652140340357,132.41121237497242 L257.8652140340357,132.41121237497242 Z" style="stroke:#00ff00;stroke-width:0;" qs:layer="1 - Interna"/>
        <!-- Polilinha -->
        <path d="M245.86521403403572,181.9112123749724 L245.86521403403572,206.1612123749724 L246.86521403403572,206.1612123749724 L246.86521403403572,181.9112123749724 Z" style="stroke:#00ff00;stroke-width:0;" qs:layer="1 - Interna"/>
        <!-- Polilinha -->
        <path d="M245.86521403403572,131.41121237497242 L246.86521403403572,131.41121237497242 L246.86521403403572,107.16121237497242 L245.86521403403572,107.16121237497242 Z" style="stroke:#00ff00;stroke-width:0;" qs:layer="1 - Interna"/>
        <!-- Polilinha -->
        <path d="M255.86521403403572,157.6612123749724 L255.86521403403572,255.6612123749724 L256.8652140340357,255.6612123749724 L256.8652140340357,157.6612123749724 Z" style="stroke:#00ff00;stroke-width:0;" qs:layer="1 - Interna"/>
        <!-- Polilinha -->
        <path d="M255.86521403403572,155.6612123749724 L256.8652140340357,155.6612123749724 L256.8652140340357,57.661212374972386 L255.86521403403572,57.661212374972386 Z" style="stroke:#00ff00;stroke-width:0;" qs:layer="1 - Interna"/>
        <!-- Polilinha -->
        <path d="M241.86521403403572,181.9112123749724 L241.86521403403572,206.1612123749724 L242.86521403403572,206.1612123749724 L242.86521403403572,181.9112123749724 Z" style="stroke:#00ff00;stroke-width:0;" qs:layer="1 - Interna"/>
        <!-- Polilinha -->
        <path d="M241.86521403403572,131.41121237497242 L242.86521403403572,131.41121237497242 L242.86521403403572,107.16121237497242 L241.86521403403572,107.16121237497242 Z" style="stroke:#00ff00;stroke-width:0;" qs:layer="1 - Interna"/>
        <!-- Polilinha -->
        <path d="M253.86521403403572,156.6612123749724 L253.86521403403572,180.9112123749724 L254.86521403403572,180.9112123749724 L254.86521403403572,156.6612123749724 L254.86521403403572,132.41121237497242 L253.86521403403572,132.41121237497242 Z" style="stroke:#00ff00;stroke-width:0;" qs:layer="1 - Interna"/>
        <!-- Polilinha -->
        <path d="M237.86521403403572,181.9112123749724 L237.86521403403572,206.1612123749724 L238.86521403403572,206.1612123749724 L238.86521403403572,181.9112123749724 Z" style="stroke:#00ff00;stroke-width:0;" qs:layer="1 - Interna"/>
        <!-- Polilinha -->
        <path d="M237.86521403403572,131.41121237497242 L238.86521403403572,131.41121237497242 L238.86521403403572,107.16121237497242 L237.86521403403572,107.16121237497242 Z" style="stroke:#00ff00;stroke-width:0;" qs:layer="1 - Interna"/>
        <!-- Polilinha -->
        <path d="M251.86521403403572,157.6612123749724 L251.86521403403572,255.6612123749724 L252.86521403403572,255.6612123749724 L252.86521403403572,157.6612123749724 Z" style="stroke:#00ff00;stroke-width:0;" qs:layer="1 - Interna"/>
        <!-- Polilinha -->
        <path d="M251.86521403403572,155.6612123749724 L252.86521403403572,155.6612123749724 L252.86521403403572,57.661212374972386 L251.86521403403572,57.661212374972386 Z" style="stroke:#00ff00;stroke-width:0;" qs:layer="1 - Interna"/>
        <!-- Polilinha -->
        <path d="M233.86521403403572,181.9112123749724 L233.86521403403572,206.1612123749724 L234.86521403403572,206.1612123749724 L234.86521403403572,181.9112123749724 Z" style="stroke:#00ff00;stroke-width:0;" qs:layer="1 - Interna"/>
        <!-- Polilinha -->
        <path d="M233.86521403403572,131.41121237497242 L234.86521403403572,131.41121237497242 L234.86521403403572,107.16121237497242 L233.86521403403572,107.16121237497242 Z" style="stroke:#00ff00;stroke-width:0;" qs:layer="1 - Interna"/>
        <!-- Polilinha -->
        <path d="M249.86521403403572,156.6612123749724 L249.86521403403572,180.9112123749724 L250.86521403403572,180.9112123749724 L250.86521403403572,156.6612123749724 L250.86521403403572,132.41121237497242 L249.86521403403572,132.41121237497242 Z" style="stroke:#00ff00;stroke-width:0;" qs:layer="1 - Interna"/>
        <!-- Polilinha -->
        <path d="M247.86521403403572,157.6612123749724 L247.86521403403572,255.6612123749724 L248.86521403403572,255.6612123749724 L248.86521403403572,157.6612123749724 Z" style="stroke:#00ff00;stroke-width:0;" qs:layer="1 - Interna"/>
        <!-- Polilinha -->
        <path d="M247.86521403403572,155.6612123749724 L248.86521403403572,155.6612123749724 L248.86521403403572,57.661212374972386 L247.86521403403572,57.661212374972386 Z" style="stroke:#00ff00;stroke-width:0;" qs:layer="1 - Interna"/>
        <!-- Polilinha -->
        <path d="M245.86521403403572,156.6612123749724 L245.86521403403572,180.9112123749724 L246.86521403403572,180.9112123749724 L246.86521403403572,156.6612123749724 L246.86521403403572,132.41121237497242 L245.86521403403572,132.41121237497242 Z" style="stroke:#00ff00;stroke-width:0;" qs:layer="1 - Interna"/>
        <!-- Polilinha -->
        <path d="M243.86521403403572,157.6612123749724 L243.86521403403572,255.6612123749724 L244.86521403403572,255.6612123749724 L244.86521403403572,157.6612123749724 Z" style="stroke:#00ff00;stroke-width:0;" qs:layer="1 - Interna"/>
        <!-- Polilinha -->
        <path d="M243.86521403403572,155.6612123749724 L244.86521403403572,155.6612123749724 L244.86521403403572,57.661212374972386 L243.86521403403572,57.661212374972386 Z" style="stroke:#00ff00;stroke-width:0;" qs:layer="1 - Interna"/>
        <!-- Polilinha -->
        <path d="M241.86521403403572,156.6612123749724 L241.86521403403572,180.9112123749724 L242.86521403403572,180.9112123749724 L242.86521403403572,156.6612123749724 L242.86521403403572,132.41121237497242 L241.86521403403572,132.41121237497242 Z" style="stroke:#00ff00;stroke-width:0;" qs:layer="1 - Interna"/>
        <!-- Polilinha -->
        <path d="M239.86521403403572,157.6612123749724 L239.86521403403572,255.6612123749724 L240.86521403403572,255.6612123749724 L240.86521403403572,157.6612123749724 Z" style="stroke:#00ff00;stroke-width:0;" qs:layer="1 - Interna"/>
        <!-- Polilinha -->
        <path d="M239.8652140340356,155.6612123749724 L240.86521403403572,155.6612123749724 L240.86521403403572,57.661212374972386 L239.86521403403572,57.661212374972386 Z" style="stroke:#00ff00;stroke-width:0;" qs:layer="1 - Interna"/>
        <!-- Polilinha -->
        <path d="M237.86521403403572,156.6612123749724 L237.86521403403572,180.9112123749724 L238.86521403403572,180.9112123749724 L238.86521403403572,156.6612123749724 L238.86521403403572,132.41121237497242 L237.86521403403572,132.41121237497242 Z" style="stroke:#00ff00;stroke-width:0;" qs:layer="1 - Interna"/>
        <!-- Polilinha -->
        <path d="M235.86521403403572,157.6612123749724 L235.86521403403572,255.6612123749724 L236.86521403403572,255.6612123749724 L236.86521403403572,157.6612123749724 Z" style="stroke:#00ff00;stroke-width:0;" qs:layer="1 - Interna"/>
        <!-- Polilinha -->
        <path d="M235.86521403403572,155.6612123749724 L236.86521403403572,155.6612123749724 L236.86521403403572,57.661212374972386 L235.86521403403572,57.661212374972386 Z" style="stroke:#00ff00;stroke-width:0;" qs:layer="1 - Interna"/>
        <!-- Polilinha -->
        <path d="M233.86521403403572,156.6612123749724 L233.86521403403572,180.9112123749724 L234.86521403403572,180.9112123749724 L234.86521403403572,156.6612123749724 L234.86521403403572,132.41121237497242 L233.86521403403572,132.41121237497242 Z" style="stroke:#00ff00;stroke-width:0;" qs:layer="1 - Interna"/>
        <!-- Polilinha -->
        <path d="M231.86521403403572,157.6612123749724 L231.86521403403572,255.6612123749724 L232.86521403403572,255.6612123749724 L232.86521403403572,157.6612123749724 Z" style="stroke:#00ff00;stroke-width:0;" qs:layer="1 - Interna"/>
        <!-- Polilinha -->
        <path d="M231.86521403403572,155.6612123749724 L232.86521403403572,155.6612123749724 L232.86521403403572,57.661212374972386 L231.86521403403572,57.661212374972386 Z" style="stroke:#00ff00;stroke-width:0;" qs:layer="1 - Interna"/>
        <!-- Polilinha -->
        <path d="M218.8652140340356,159.6612123749725 L218.86521403403572,205.1612123749725 L228.86521403403572,205.1612123749725 L228.8652140340356,159.6612123749725 Z" style="stroke:#00ff00;stroke-width:0;" qs:layer="1 - Interna"/>
        <!-- Polilinha -->
        <path d="M228.86521403403572,153.6612123749725 L228.86521403403572,108.16121237497251 L218.86521403403572,108.16121237497251 L218.86521403403572,153.6612123749725 Z" style="stroke:#00ff00;stroke-width:0;" qs:layer="1 - Interna"/>
        <!-- Polilinha -->
        <path d="M213.86521403403572,256.66121237497237 L203.86521403403572,256.66121237497237 L203.86521403403572,266.66121237497237 L213.86521403403572,266.66121237497237 Z" style="stroke:#000000;stroke-width:0;" qs:layer="0"/>
        <!-- Polilinha -->
        <path d="M476.9119568471792,156.6612123749724 L476.9119568471792,256.66121237497237 L456.9119568471792,256.66121237497237 L456.9119568471792,232.4112123749724 L455.9119568471792,232.4112123749724 L455.9119568471792,256.66121237497237 L452.9119568471792,256.66121237497237 L452.9119568471792,232.4112123749724 L451.9119568471792,232.4112123749724 L451.9119568471792,256.66121237497237 L448.9119568471792,256.66121237497237 L448.9119568471792,232.4112123749724 L447.9119568471792,232.4112123749724 L447.9119568471792,256.66121237497237 L444.9119568471792,256.66121237497237 L444.9119568471792,232.4112123749724 L443.9119568471792,232.4112123749724 L443.9119568471792,256.66121237497237 L440.9119568471792,256.66121237497237 L440.9119568471792,232.4112123749724 L439.9119568471792,232.4112123749724 L439.9119568471792,256.66121237497237 L436.9119568471792,256.66121237497237 L436.9119568471792,232.4112123749724 L435.9119568471792,232.4112123749724 L435.9119568471792,256.66121237497237 L432.9119568471792,256.66121237497237 L432.9119568471792,232.4112123749724 L431.9119568471792,232.4112123749724 L431.9119568471792,256.66121237497237 L428.9119568471792,256.66121237497237 L428.9119568471792,232.4112123749724 L427.9119568471792,232.4112123749724 L427.9119568471792,256.66121237497237 L424.9119568471792,256.66121237497237 L424.9119568471792,232.4112123749724 L423.9119568471792,232.4112123749724 L423.9119568471792,256.66121237497237 L420.9119568471792,256.66121237497237 L420.9119568471792,232.4112123749724 L419.9119568471792,232.4112123749724 L419.9119568471792,256.66121237497237 L416.9119568471792,256.66121237497237 L416.9119568471792,232.4112123749724 L415.9119568471792,232.4112123749724 L415.9119568471792,256.66121237497237 L412.9119568471792,256.66121237497237 L412.9119568471792,232.4112123749724 L411.9119568471792,232.4112123749724 L411.9119568471792,256.66121237497237 L391.9119568471792,256.66121237497237 L391.9119568471792,156.6612123749724 L391.9119568471792,56.661212374972386 L411.9119568471792,56.661212374972386 L411.9119568471792,80.91121237497242 L412.9119568471792,80.91121237497242 L412.9119568471792,56.661212374972386 L415.9119568471792,56.661212374972386 L415.9119568471792,80.91121237497242 L416.9119568471792,80.91121237497242 L416.9119568471792,56.661212374972386 L419.9119568471792,56.661212374972386 L419.9119568471792,80.91121237497242 L420.9119568471792,80.91121237497242 L420.9119568471792,56.661212374972386 L423.9119568471792,56.661212374972386 L423.9119568471792,80.91121237497242 L424.9119568471792,80.91121237497242 L424.9119568471792,56.661212374972386 L427.9119568471792,56.661212374972386 L427.9119568471792,80.91121237497242 L428.9119568471792,80.91121237497242 L428.9119568471792,56.661212374972386 L431.9119568471792,56.661212374972386 L431.9119568471792,80.91121237497242 L432.9119568471792,80.91121237497242 L432.9119568471792,56.661212374972386 L435.9119568471792,56.661212374972386 L435.9119568471792,80.91121237497242 L436.9119568471792,80.91121237497242 L436.9119568471792,56.661212374972386 L439.9119568471792,56.661212374972386 L439.9119568471792,80.91121237497242 L440.9119568471792,80.91121237497242 L440.9119568471792,56.661212374972386 L443.9119568471792,56.661212374972386 L443.9119568471792,80.91121237497242 L444.9119568471792,80.91121237497242 L444.9119568471792,56.661212374972386 L447.9119568471792,56.661212374972386 L447.9119568471792,80.91121237497242 L448.9119568471792,80.91121237497242 L448.9119568471792,56.661212374972386 L451.9119568471792,56.661212374972386 L451.9119568471792,80.91121237497242 L452.9119568471792,80.91121237497242 L452.9119568471792,56.661212374972386 L455.9119568471792,56.661212374972386 L455.9119568471792,80.91121237497242 L456.9119568471792,80.91121237497242 L456.9119568471792,56.661212374972386 L476.9119568471792,56.661212374972386 Z" style="stroke:#ff0000;stroke-width:0;" qs:layer="2 - Externa"/>
        <!-- Polilinha -->
        <path d="M537.9586996603226,116.48729933149392 L543.9586996603226,116.48729933149392 L543.9586996603226,113.48729933149392 L549.9586996603226,113.48729933149392 L549.9586996603226,119.48729933149392 L537.9586996603226,119.48729933149392 L537.9586996603226,129.48729933149392 L532.9586996603225,129.48729933149392 L482.4112597937524,84.43493230825769 L482.4112597937524,56.66121237497239 L487.4112597937524,56.66121237497239 L490.4112597937524,56.66121237497239 L493.4112597937524,56.66121237497239 L493.4112597937524,66.6612123749724 L490.4112597937524,66.6612123749724 L490.4112597937524,61.66121237497239 L487.4112597937524,61.66121237497239 L487.4112597937524,79.43493230825746 L532.9586996603225,79.43493230825746 L532.9586996603225,61.66121237497239 L529.9586996603225,61.66121237497239 L529.9586996603225,66.6612123749724 L526.9586996603225,66.6612123749724 L526.9586996603225,56.66121237497239 L529.9586996603225,56.66121237497239 L532.9586996603225,56.66121237497239 L537.9586996603225,56.66121237497239 L537.9586996603225,66.22642976627642 L543.9586996603227,66.22642976627642 L543.9586996603227,63.226429766276425 L549.9586996603227,63.226429766276425 L549.9586996603227,69.22642976627642 L537.9586996603225,69.22642976627642 L537.9586996603225,84.43493230825746 Z" style="stroke:#ff0000;stroke-width:0;" qs:layer="2 - Externa"/>
        <!-- Polilinha -->
        <path d="M537.9586996603226,196.3830261006524 L543.9586996603226,196.3830261006524 L543.9586996603226,193.3830261006524 L549.9586996603226,193.3830261006524 L549.9586996603226,199.3830261006524 L537.9586996603226,199.3830261006524 L537.9586996603226,209.3830261006524 L532.9586996603225,209.3830261006524 L482.4112597937524,164.33065907741616 L482.4112597937524,136.55693914413087 L487.4112597937524,136.55693914413087 L490.4112597937524,136.55693914413087 L493.4112597937524,136.55693914413087 L493.4112597937524,146.55693914413087 L490.4112597937524,146.55693914413087 L490.4112597937524,141.55693914413087 L487.4112597937524,141.55693914413087 L487.4112597937524,159.33065907741593 L532.9586996603225,159.33065907741593 L532.9586996603225,141.55693914413087 L529.9586996603225,141.55693914413087 L529.9586996603225,146.55693914413087 L526.9586996603225,146.55693914413087 L526.9586996603225,136.55693914413087 L529.9586996603225,136.55693914413087 L532.9586996603225,136.55693914413087 L537.9586996603225,136.55693914413087 L537.9586996603225,146.1221565354349 L543.9586996603227,146.1221565354349 L543.9586996603227,143.1221565354349 L549.9586996603227,143.1221565354349 L549.9586996603227,149.1221565354349 L537.9586996603225,149.1221565354349 L537.9586996603225,164.33065907741593 Z" style="stroke:#ff0000;stroke-width:0;" qs:layer="2 - Externa"/>
        <!-- Polilinha -->
        <path d="M391.9119568471792,256.66121237497237 L381.9119568471792,256.66121237497237 L381.9119568471792,266.66121237497237 L391.9119568471792,266.66121237497237 Z" style="stroke:#000000;stroke-width:0;" qs:layer="0"/>
        <!-- Polilinha -->
        <path d="M354.911956847179,202.6852732591055 L338.5749111515605,188.12424740503127 L354.911956847179,188.12424740503127 Z" style="stroke:#00ff00;stroke-width:0;" qs:layer="1 - Interna"/>
        <!-- Polilinha -->
        <path d="M350.2935728316992,183.12424740503116 L332.9650571964397,183.12424740503116 L332.9650571964397,167.67953549818913 Z" style="stroke:#00ff00;stroke-width:0;" qs:layer="1 - Interna"/>
        <!-- Polilinha -->
        <path d="M354.911956847179,180.54280851071644 L336.7223987232974,164.33065907741593 L354.911956847179,164.33065907741593 Z" style="stroke:#00ff00;stroke-width:0;" qs:layer="1 - Interna"/>
        <!-- Polilinha -->
        <path d="M327.9650571964396,178.66780340488384 L311.8792000343233,164.33065907741593 L327.9650571964396,164.33065907741593 Z" style="stroke:#00ff00;stroke-width:0;" qs:layer="1 - Interna"/>
        <!-- Polilinha -->
        <path d="M354.911956847179,122.78954648994701 L338.5749111515605,108.2285206358728 L354.911956847179,108.2285206358728 Z" style="stroke:#00ff00;stroke-width:0;" qs:layer="1 - Interna"/>
        <!-- Polilinha -->
        <path d="M350.2935728316992,103.22852063587268 L332.9650571964397,103.22852063587268 L332.9650571964397,87.78380872903065 Z" style="stroke:#00ff00;stroke-width:0;" qs:layer="1 - Interna"/>
        <!-- Polilinha -->
        <path d="M354.911956847179,100.64708174155797 L336.7223987232974,84.43493230825746 L354.911956847179,84.43493230825746 Z" style="stroke:#00ff00;stroke-width:0;" qs:layer="1 - Interna"/>
        <!-- Polilinha -->
        <path d="M327.9650571964396,98.77207663572537 L311.8792000343233,84.43493230825746 L327.9650571964396,84.43493230825746 Z" style="stroke:#00ff00;stroke-width:0;" qs:layer="1 - Interna"/>
    </g>
</svg>
