<?xml version="1.0" encoding="UTF-8"?>
<!-- 2017-10-15 23:16:02 Generated by QCAD SVG Exporter PG -->
<svg width="710.25mm" height="170.2500000000001mm" viewBox="209.13048742557214 -171.4757137554036 710.25 170.2500000000001" version="1.1" xmlns="http://www.w3.org/2000/svg" style="stroke-linecap:round;stroke-linejoin:round;fill:none" xmlns:qs="http://qcad.org/namespaces/svg" xmlns:sodipodi="http://sodipodi.sourceforge.net/DTD/sodipodi-0.dtd" xmlns:inkscape="http://www.inkscape.org/namespaces/inkscape">
    <sodipodi:namedview inkscape:document-units="mm" unitToSymbol="mm" units="mm"/>
    <g transform="scale(1,-1)">
        <!-- Polilinha -->
        <path d="M251.75548742557214,153.35071375540352 L248.75548742557214,153.35071375540352 L248.75548742557214,158.35071375540352 L251.75548742557214,158.35071375540352 Z" style="stroke:#00ff00;stroke-width:0.25;" qs:layer="Corte 1"/>
        <!-- Polilinha -->
        <path d="M251.75548742557214,107.35071375540352 L248.75548742557214,107.35071375540352 L248.75548742557214,102.35071375540352 L251.75548742557214,102.35071375540352 Z" style="stroke:#00ff00;stroke-width:0.25;" qs:layer="Corte 1"/>
        <!-- Polilinha -->
        <path d="M273.25548742557214,131.85071375540352 L273.25548742557214,128.85071375540352 L278.25548742557214,128.85071375540352 L278.25548742557214,131.85071375540352 Z" style="stroke:#00ff00;stroke-width:0.25;" qs:layer="Corte 1"/>
        <!-- Polilinha -->
        <path d="M227.25548742557214,131.85071375540352 L227.25548742557214,128.85071375540352 L222.25548742557214,128.85071375540352 L222.25548742557214,131.85071375540352 Z" style="stroke:#00ff00;stroke-width:0.25;" qs:layer="Corte 1"/>
        <!-- Polilinha -->
        <path d="M232.9313712865017,115.14791795989277 L235.05269163006136,113.0265976163331 L231.51715772412865,109.49106371040037 L229.39583738056896,111.61238405396004 Z" style="stroke:#00ff00;stroke-width:0.25;" qs:layer="Corte 1"/>
        <!-- Polilinha -->
        <path d="M265.4582832210829,147.67482989447393 L267.5796035646425,145.5535095509143 L271.11513747057535,149.089043456847 L268.99381712701563,151.21036380040672 Z" style="stroke:#00ff00;stroke-width:0.25;" qs:layer="Corte 1"/>
        <!-- Polilinha -->
        <path d="M267.5796035646425,115.14791795989275 L265.4582832210829,113.0265976163331 L268.99381712701563,109.49106371040037 L271.11513747057523,111.61238405396 Z" style="stroke:#00ff00;stroke-width:0.25;" qs:layer="Corte 1"/>
        <!-- Polilinha -->
        <path d="M235.05269163006136,147.67482989447393 L232.93137128650173,145.5535095509143 L229.395837380569,149.089043456847 L231.51715772412862,151.21036380040672 Z" style="stroke:#00ff00;stroke-width:0.25;" qs:layer="Corte 1"/>
        <!-- Polilinha -->
        <path d="M259.80142897159055,118.64191846951056 L261.92274931515016,120.76323881307025 L258.38721540921745,124.29877271900295 L256.26589506565773,122.1774523754433 Z" style="stroke:#00ff00;stroke-width:0.25;" qs:layer="Corte 1"/>
        <!-- Polilinha -->
        <path d="M242.12375944192684,136.3195879991743 L244.2450797854865,138.4409083427339 L240.70954587955373,141.97644224866661 L238.58822553599407,139.855121905107 Z" style="stroke:#00ff00;stroke-width:0.25;" qs:layer="Corte 1"/>
        <!-- Polilinha -->
        <path d="M265.25548742557214,128.8091803590886 L265.25548742557214,131.8091803590886 L260.25548742557214,131.8091803590886 L260.25548742557214,128.8091803590886 Z" style="stroke:#00ff00;stroke-width:0.25;" qs:layer="Corte 1"/>
        <!-- Polilinha -->
        <path d="M240.25548742557214,128.8091803590886 L240.25548742557214,131.8091803590886 L235.25548742557214,131.8091803590886 L235.25548742557214,128.8091803590886 Z" style="stroke:#00ff00;stroke-width:0.25;" qs:layer="Corte 1"/>
        <!-- Polilinha -->
        <path d="M244.2450797854865,122.1774523754433 L242.12375944192684,124.29877271900295 L238.58822553599407,120.76323881307025 L240.70954587955373,118.64191846951059 Z" style="stroke:#00ff00;stroke-width:0.25;" qs:layer="Corte 1"/>
        <!-- Polilinha -->
        <path d="M261.92274931515016,139.855121905107 L259.80142897159055,141.97644224866661 L256.26589506565773,138.4409083427339 L258.38721540921745,136.3195879991743 Z" style="stroke:#00ff00;stroke-width:0.25;" qs:layer="Corte 1"/>
        <!-- Polilinha -->
        <path d="M248.75548742557214,140.3091803590886 L251.75548742557214,140.3091803590886 L251.75548742557214,145.3091803590886 L248.75548742557214,145.3091803590886 Z" style="stroke:#00ff00;stroke-width:0.25;" qs:layer="Corte 1"/>
        <!-- Polilinha -->
        <path d="M248.75548742557214,115.3091803590886 L251.75548742557214,115.3091803590886 L251.75548742557214,120.3091803590886 L248.75548742557214,120.3091803590886 Z" style="stroke:#00ff00;stroke-width:0.25;" qs:layer="Corte 1"/>
        <!-- Polilinha -->
        <path d="M306.8821157439129,152.18837365851815 L306.8766648330825,152.19314498521317 C309.1932848765309,152.97546583958942 311.6748581619332,153.39957489863582 314.2554874255727,153.39957489863582 C314.7616184180977,153.39957489863582 315.263939144413,153.38326120969236 315.7619524638136,153.35113097251025 L315.75548742557265,158.35071375540358 L312.75548742557265,158.35071375540358 L312.75548742557265,156.35071375540358 L312.75457167294815,156.351419511776 C310.43834864931324,156.21930202333792 308.20849409552847,155.78631813936354 306.1032398680904,155.0925444260045 Z" style="stroke:#00ff00;stroke-width:0.25;" qs:layer="Corte 1"/>
        <!-- Polilinha -->
        <path d="M292.4178275224581,122.97734207374384 L292.41305619576315,122.97189116291347 C291.63073534138687,125.28851120636189 291.2066262823405,127.77008449176411 291.2066262823405,130.3507137554036 C291.2066262823405,130.85684474792865 291.22293997128395,131.3591654742439 291.25507020846607,131.8571787936445 L286.25548742557265,131.85071375540358 L286.25548742557265,128.85071375540358 L288.25548742557265,128.85071375540358 L288.2547816692003,128.84979800277904 C288.3868991576383,126.53357497914416 288.8198830416127,124.30372042535943 289.51365675497175,122.19846619792132 Z" style="stroke:#00ff00;stroke-width:0.25;" qs:layer="Corte 1"/>
        <!-- Polilinha -->
        <path d="M321.62885910723236,108.51305385228899 L321.63431001806276,108.50828252559397 C319.3176899746143,107.72596167121775 316.83611668921213,107.30185261217136 314.25548742557265,107.30185261217136 C313.7493564330476,107.30185261217136 313.24703570673233,107.31816630111483 312.7490223873317,107.35029653829693 L312.7554874255726,102.35071375540358 L315.7554874255726,102.35071375540358 L315.7554874255726,104.35071375540358 L315.75640317819716,104.3500079990312 C318.072626201832,104.48212548746928 320.3024807556167,104.91510937144363 322.40773498305487,105.60888308480267 Z" style="stroke:#00ff00;stroke-width:0.25;" qs:layer="Corte 1"/>
        <!-- Polilinha -->
        <path d="M336.0931473286872,137.7240854370633 L336.0979186553822,137.72953634789368 C336.88023950975844,135.4129163044453 337.3043485688048,132.93134301904308 337.3043485688048,130.35071375540358 C337.3043485688048,129.84458276287853 337.28803487986136,129.34226203656328 337.25590464267924,128.84424871716263 L342.25548742557265,128.85071375540358 L342.25548742557265,131.85071375540358 L340.25548742557265,131.85071375540358 L340.256193181945,131.8516295080281 C340.124075693507,134.167852531663 339.6910918095326,136.39770708544773 338.99731809617356,138.50296131288584 Z" style="stroke:#00ff00;stroke-width:0.25;" qs:layer="Corte 1"/>
        <!-- Polilinha -->
        <path d="M293.6001689065243,140.578510041831 L293.5974374451689,140.5845035936079 C294.9418094643075,143.29306143579547 296.8031897784064,145.69960692806558 299.0525005781379,147.67506226109046 L295.5171577241291,151.2103638004067 L293.3958373805695,149.08904345684707 L294.81005094294255,147.67482989447396 L294.8098923694204,147.6750530483835 C293.3106368294303,145.99340422753005 292.02629166053634,144.11609385754346 291.00103116722596,142.08838759977297 Z" style="stroke:#00ff00;stroke-width:0.25;" qs:layer="Corte 1"/>
        <!-- Polilinha -->
        <path d="M304.0276911391452,109.69539523635521 L304.0216975873683,109.69266377499994 C301.31313974518065,111.0370357941385 298.90659425291057,112.8984161082374 296.9311389198857,115.1477269079689 L293.39583738056945,111.61238405396003 L295.5171577241291,109.4910637104004 L296.9313712865022,110.9052772727735 L296.9311481325927,110.90511869925137 C298.61279695344615,109.40586315926123 300.4901073234327,108.12151799036728 302.5178135812032,107.09625749705688 Z" style="stroke:#00ff00;stroke-width:0.25;" qs:layer="Corte 1"/>
        <!-- Polilinha -->
        <path d="M334.91080594462096,120.12291746897611 L334.9135374059763,120.11692391719922 C333.5691653868377,117.40836607501163 331.70778507273883,115.00182058274152 329.4584742730073,113.0263652497166 L332.9938171270161,109.49106371040037 L335.11513747057575,111.61238405396003 L333.7009239082027,113.02659761633313 L333.7010824817248,113.0263744624236 C335.20033802171497,114.70802328327706 336.4846831906089,116.58533365326363 337.5099436839193,118.61303991103412 Z" style="stroke:#00ff00;stroke-width:0.25;" qs:layer="Corte 1"/>
        <!-- Polilinha -->
        <path d="M324.48328371200006,151.00603227445188 L324.48927726377696,151.00876373580712 C327.1978351059645,149.6643917166686 329.6043805982346,147.80301140256972 331.57983593125954,145.5537006028382 L335.1151374705758,149.08904345684707 L332.99381712701614,151.21036380040672 L331.57960356464304,149.79615023803362 L331.5798267185526,149.79630881155578 C329.89817789769916,151.29556435154592 328.02086752771254,152.57990952043988 325.99316126994205,153.60517001375027 Z" style="stroke:#00ff00;stroke-width:0.25;" qs:layer="Corte 1"/>
        <!-- Polilinha -->
        <path d="M309.8875167654254,139.47051815638156 L309.8857018431826,139.47224239354318 C311.20833130438706,140.10701425209396 312.6903850199253,140.46258796348195 314.25548742557214,140.46258796348195 C314.76679134242966,140.46258796348195 315.26923175399634,140.42463878610127 315.7601457071968,140.35140338441528 L315.75548742557214,145.35071375540358 L312.75548742557214,145.35071375540358 L312.75548742557214,143.35071375540358 L312.7541331797858,143.35177947849897 C311.4316018218894,143.2003091478496 310.1726251911295,142.85332708544416 309.00467959811346,142.34093747958093 Z" style="stroke:#00ff00;stroke-width:0.25;" qs:layer="Corte 1"/>
        <!-- Polilinha -->
        <path d="M318.6234580857189,121.23090935442559 L318.6252730079617,121.229185117264 C317.3026435467572,120.59441325871322 315.82058983121897,120.23883954732524 314.25548742557214,120.23883954732524 C313.7441835087146,120.23883954732524 313.24174309714795,120.27678872470591 312.7508291439475,120.35002412639192 L312.75548742557214,115.35071375540358 L315.75548742557214,115.35071375540358 L315.75548742557214,117.35071375540358 L315.7568416713585,117.34964803230817 C317.0793730292549,117.5011183629576 318.3383496600148,117.84810042536303 319.5062952530308,118.3604900312262 Z" style="stroke:#00ff00;stroke-width:0.25;" qs:layer="Corte 1"/>
        <!-- Polilinha -->
        <path d="M305.1356830245942,125.98274309525684 L305.1339587874326,125.98092817301404 C304.49918692888184,127.30355763421849 304.14361321749385,128.78561134975675 304.14361321749385,130.3507137554036 C304.14361321749385,130.8620176722611 304.1815623948745,131.36445808382774 304.2547977965605,131.85537203702822 L299.25548742557214,131.85071375540358 L299.25548742557214,128.85071375540358 L301.25548742557214,128.85071375540358 L301.2544217024768,128.84935950961727 C301.40589203312624,127.52682815172084 301.75287409553164,126.26785152096096 302.26526370139476,125.09990592794495 Z" style="stroke:#00ff00;stroke-width:0.25;" qs:layer="Corte 1"/>
        <!-- Polilinha -->
        <path d="M323.3752918265501,134.7186844155503 L323.37701606371166,134.72049933779311 C324.01178792226244,133.39786987658866 324.36736163365043,131.9158161610504 324.36736163365043,130.35071375540355 C324.36736163365043,129.83940983854606 324.3294124562698,129.3369694269794 324.25617705458376,128.84605547377893 L329.25548742557214,128.85071375540358 L329.25548742557214,131.85071375540358 L327.25548742557214,131.85071375540358 L327.2565531486675,131.85206800118988 C327.10508281801805,133.1745993590863 326.75810075561265,134.43357598984616 326.24571114974947,135.6015215828622 Z" style="stroke:#00ff00;stroke-width:0.25;" qs:layer="Corte 1"/>
        <!-- Polilinha -->
        <path d="M304.71819021673207,133.7107676166164 L304.7167622037249,133.71500581941794 C305.39463761105947,135.63698477653702 306.63695927495155,137.2926518504991 308.2446460518146,138.48292589771773 L304.70954587955373,142.0179756449816 L302.5882255359941,139.89665530142196 L304.0024390983672,138.48244173904888 L304.0021414228327,138.48289460807476 C303.19955314033785,137.4722950172101 302.54327649421,136.34045596147607 302.0660040268679,135.12128267497113 Z" style="stroke:#00ff00;stroke-width:0.25;" qs:layer="Corte 1"/>
        <!-- Polilinha -->
        <path d="M323.7927846344122,126.99065989419074 L323.7942126474194,126.98642169138922 C323.1163372400848,125.06444273427014 321.87401557619273,123.40877566030804 320.2663287993297,122.21850161308943 L323.80142897159055,118.68345186582553 L325.92274931515016,120.80477220938516 L324.5085357527771,122.21898577175827 L324.50883342831156,122.21853290273238 C325.3114217108064,123.22913249359705 325.9676983569343,124.36097154933108 326.44497082427637,125.58014483583602 Z" style="stroke:#00ff00;stroke-width:0.25;" qs:layer="Corte 1"/>
        <!-- Polilinha -->
        <path d="M310.89543356435934,120.81341654656347 L310.89119536155783,120.8119885335563 C308.9692164044387,121.48986394089091 307.31354933047663,122.732185604783 306.123275283258,124.33987238164605 L302.58822553599407,120.80477220938516 L304.70954587955373,118.68345186582553 L306.12375944192684,120.09766542819864 L306.1233065729009,120.09736775266418 C307.13390616376563,119.29477947016929 308.26574521949965,118.63850282404144 309.4849185060046,118.16123035669938 Z" style="stroke:#00ff00;stroke-width:0.25;" qs:layer="Corte 1"/>
        <!-- Polilinha -->
        <path d="M317.61554128678495,139.88801096424365 L317.61977948958645,139.88943897725082 C319.54175844670556,139.21156356991622 321.1974255206677,137.96924190602414 322.38769956788633,136.3615551291611 L325.92274931515016,139.89665530142196 L323.80142897159055,142.0179756449816 L322.38721540921745,140.6037620826085 L322.3876682782433,140.60405975814297 C321.3770686873787,141.4066480406378 320.2452296316447,142.06292468676565 319.0260563451397,142.54019715410774 Z" style="stroke:#00ff00;stroke-width:0.25;" qs:layer="Corte 1"/>
        <!-- Polilinha -->
        <path d="M266.2094032315032,33.25475435308855 C266.2094032315032,32.42409566790686 265.53602131899953,31.75071375540322 264.70536263381786,31.75071375540322 C263.8747039486362,31.75071375540322 263.2013220361325,32.42409566790686 263.2013220361325,33.25475435308855 C263.2013220361325,34.08541303827024 263.8747039486362,34.75879495077388 264.70536263381786,34.75879495077388 C265.53602131899953,34.75879495077388 266.2094032315032,34.08541303827024 266.2094032315032,33.25475435308855" style="stroke:#00ff00;stroke-width:0.25;" qs:layer="Corte 1"/>
        <!-- Polilinha -->
        <path d="M276.25144682788687,103.84667315771821 C276.25144682788687,104.67733184289987 276.92482874039047,105.35071375540349 277.75548742557214,105.35071375540349 C278.5861461107538,105.35071375540349 279.2595280232574,104.67733184289987 279.2595280232574,103.84667315771821 C279.2595280232574,103.01601447253655 278.5861461107538,102.34263256003294 277.75548742557214,102.34263256003294 C276.92482874039047,102.34263256003294 276.25144682788687,103.01601447253655 276.25144682788687,103.84667315771821" style="stroke:#00ff00;stroke-width:0.25;" qs:layer="Corte 1"/>
        <!-- Polilinha -->
        <path d="M275.2094032315032,33.25475435308858 C275.2094032315032,32.42409566790689 274.53602131899953,31.750713755403247 273.70536263381786,31.750713755403247 C272.8747039486362,31.750713755403247 272.2013220361325,32.42409566790689 272.2013220361325,33.25475435308858 C272.2013220361325,34.08541303827027 272.8747039486362,34.75879495077391 273.70536263381786,34.75879495077391 C274.53602131899953,34.75879495077391 275.2094032315032,34.08541303827027 275.2094032315032,33.25475435308858" style="stroke:#00ff00;stroke-width:0.25;" qs:layer="Corte 1"/>
        <!-- Polilinha -->
        <path d="M285.25144682788687,103.84667315771824 C285.25144682788687,104.6773318428999 285.92482874039047,105.35071375540352 286.75548742557214,105.35071375540352 C287.5861461107538,105.35071375540352 288.2595280232574,104.6773318428999 288.2595280232574,103.84667315771824 C288.2595280232574,103.01601447253658 287.5861461107538,102.34263256003297 286.75548742557214,102.34263256003297 C285.92482874039047,102.34263256003297 285.25144682788687,103.01601447253658 285.25144682788687,103.84667315771824" style="stroke:#00ff00;stroke-width:0.25;" qs:layer="Corte 1"/>
        <!-- Polilinha -->
        <path d="M300.67676194688534,67.18009122220917 L300.6781368795524,67.17786654024013 C304.6587389938876,72.64171177522311 307.0727948853293,79.31901830873757 307.2606609778492,86.54618290469304 L311.26054240660375,86.55071375540318 L311.2606609778492,86.54618290469277 C311.0718463476374,79.31615190204494 308.65778786225053,72.64016266127277 304.67813687955265,67.17786654024032 L304.67605784093183,67.18116524920168 C301.0114144530143,62.5492388233207 298.68259656917553,56.81244131851344 298.2714261227624,50.55928636626172 L294.27199196556955,50.55071375540365 L294.27142612276236,50.55928636626176 C294.68439674166837,56.816978766491246 297.0129162083966,62.55124728814296 300.6760578409316,67.18116524920151" style="stroke:#00ff00;stroke-width:0.25;" qs:layer="Corte 1"/>
        <!-- Polilinha -->
        <path d="M291.6767619468853,67.18009122220917 L291.6781368795524,67.1778665402401 C295.65873899388765,72.64171177522311 298.07279488532936,79.31901830873755 298.2606609778493,86.54618290469303 L302.2605424066037,86.55071375540315 L302.2606609778492,86.54618290469267 C302.0718463476374,79.31615190204487 299.65778786225053,72.64016266127271 295.67813687955265,67.17786654024027 L295.6760578409318,67.18116524920167 C292.0114144530142,62.54923882332069 289.6825965691754,56.81244131851343 289.2714261227623,50.559286366261716 L285.2719919655695,50.55071375540365 L285.2714261227623,50.55928636626176 C285.6843967416683,56.816978766491246 288.0129162083965,62.55124728814296 291.67605784093155,67.18116524920151" style="stroke:#00ff00;stroke-width:0.25;" qs:layer="Corte 1"/>
        <!-- Polilinha -->
        <path d="M282.67676194688573,67.18009122220974 L282.6781368795528,67.17786654024069 C286.65873899388777,72.64171177522356 289.07279488532924,79.31901830873771 289.26066097784917,86.54618290469286 L293.26054240660363,86.55071375540315 L293.26066097784917,86.5461829046927 C293.07184634763735,79.31615190204481 290.6577878622504,72.6401626612726 286.6781368795525,67.17786654024013 L286.67605784093166,67.18116524920156 C283.01141445301414,62.549238823320586 280.6825965691754,56.81244131851336 280.2714261227623,50.5592863662617 L276.27199196556944,50.55071375540365 L276.2714261227623,50.559286366261766 C276.68439674166837,56.81697876649148 279.0129162083968,62.551247288143415 282.676057840932,67.18116524920205" style="stroke:#00ff00;stroke-width:0.25;" qs:layer="Corte 1"/>
        <!-- Polilinha -->
        <path d="M273.6767619468852,67.18009122220906 L273.6781368795523,67.17786654024002 C277.6587389938875,72.64171177522303 280.0727948853292,79.31901830873745 280.2606609778491,86.54618290469293 L284.26054240660363,86.55071375540312 L284.2606609778491,86.54618290469278 C284.0718463476373,79.31615190204494 281.6577878622504,72.64016266127277 277.67813687955254,67.1778665402403 L277.6760578409317,67.18116524920167 C274.01141445301414,62.5492388233207 271.68259656917536,56.81244131851342 271.27142612276225,50.55928636626168 L267.27199196556944,50.55071375540362 L267.27142612276225,50.55928636626173 C267.6843967416683,56.816978766491175 270.0129162083965,62.551247288142875 273.6760578409315,67.18116524920138" style="stroke:#00ff00;stroke-width:0.25;" qs:layer="Corte 1"/>
        <!-- Polilinha -->
        <path d="M264.67676194688545,67.18009122220943 L264.6781368795525,67.17786654024037 C268.6587389938876,72.6417117752233 271.0727948853292,79.31901830873761 271.2606609778491,86.54618290469294 L275.26054240660363,86.5507137554031 L275.26066097784917,86.54618290469274 C275.07184634763735,79.31615190204495 272.65778786225053,72.64016266127283 268.67813687955265,67.17786654024039 L268.67605784093183,67.18116524920177 C265.0114144530142,62.54923882332076 262.68259656917536,56.81244131851343 262.27142612276225,50.559286366261624 L258.27199196556944,50.550713755403564 L258.27142612276225,50.55928636626163 C258.68439674166825,56.81697876649129 261.0129162083966,62.55124728814316 264.6760578409317,67.18116524920177" style="stroke:#00ff00;stroke-width:0.25;" qs:layer="Corte 1"/>
        <!-- Polilinha -->
        <path d="M250.67676194688548,67.18009122220937 L250.67605784093175,67.18116524920168 C247.01141445301414,62.54923882332068 244.68259656917536,56.81244131851337 244.2714261227622,50.559286366261595 L240.27199196556933,50.550713755403535 L240.27142612276214,50.55928636626165 C240.68439674166817,56.81697876649128 243.0129162083965,62.55124728814313 246.67605784093163,67.18116524920173 L246.67813687955248,67.17786654024033 C250.65873899388754,72.64171177522326 253.07279488532913,79.31901830873755 253.26066097784908,86.54618290469287 L257.2605424066035,86.55071375540304 L257.26066097784906,86.54618290469259 C257.07184634763723,79.31615190204484 254.6577878622504,72.64016266127274 250.6781368795526,67.17786654024032" style="stroke:#00ff00;stroke-width:0.25;" qs:layer="Corte 1"/>
        <!-- Polilinha -->
        <path d="M262.2605424066036,86.55071375540317 L266.2605424066036,86.55071375540307 L266.26066097784906,86.54618290469266 C266.07184634763723,79.31615190204488 263.6577878622504,72.64016266127277 259.67813687955254,67.17786654024033 L259.6760578409318,67.18116524920168 C256.0114144530142,62.54923882332067 253.68259656917542,56.812441318513365 253.2714261227623,50.55928636626161 L249.27199196556938,50.550713755403535 L249.2714261227622,50.55928636626158 C249.6843967416682,56.81697876649124 252.01291620839652,62.5512472881431 255.67605784093166,67.18116524920171 L255.67813687955248,67.1778665402403 C259.65873899388754,72.64171177522316 262.07279488532913,79.31901830873737 262.2606609778491,86.54618290469259" style="stroke:#00ff00;stroke-width:0.25;" qs:layer="Corte 1"/>
        <!-- Polilinha -->
        <path d="M219.25548742557214,161.35071375540352 L209.25548742557214,161.35071375540352 L209.25548742557214,171.35071375540352 L219.25548742557214,171.35071375540352 Z" style="stroke:#000000;stroke-width:0;" qs:layer="0"/>
        <!-- Polilinha -->
        <path d="M369.25548742557214,11.350713755403518 L379.25548742557214,11.350713755403518 L379.25548742557214,1.3507137554035182 L369.25548742557214,1.3507137554035182 Z" style="stroke:#000000;stroke-width:0;" qs:layer="0"/>
        <!-- Polilinha -->
        <path d="M412.25548742557214,130.3507137554035 C412.25548742557214,120.40958825900348 420.31436192917215,112.35071375540349 430.25548742557214,112.35071375540349 C440.19661292197213,112.35071375540349 448.25548742557214,120.40958825900348 448.25548742557214,130.3507137554035 C448.25548742557214,140.29183925180348 440.19661292197213,148.3507137554035 430.25548742557214,148.3507137554035 C420.31436192917215,148.3507137554035 412.25548742557214,140.29183925180348 412.25548742557214,130.3507137554035" style="stroke:#0000ff;stroke-width:0.25;" qs:layer="Corte 2"/>
        <!-- Polilinha -->
        <path d="M476.25548742557214,130.30918035908866 C476.25548742557214,120.36805486268865 484.31436192917215,112.30918035908866 494.25548742557214,112.30918035908866 C504.19661292197213,112.30918035908866 512.2554874255721,120.36805486268865 512.2554874255721,130.30918035908866 C512.2554874255721,140.25030585548865 504.19661292197213,148.30918035908866 494.25548742557214,148.30918035908866 C484.31436192917215,148.30918035908866 476.25548742557214,140.25030585548865 476.25548742557214,130.30918035908866" style="stroke:#0000ff;stroke-width:0.25;" qs:layer="Corte 2"/>
        <!-- Polilinha -->
        <path d="M399.25548742557214,161.3507137554035 L389.25548742557214,161.3507137554035 L389.25548742557214,171.3507137554035 L399.25548742557214,171.3507137554035 Z" style="stroke:#000000;stroke-width:0;" qs:layer="0"/>
        <!-- Polilinha -->
        <path d="M549.2554874255721,11.35071375540349 L559.2554874255721,11.35071375540349 L559.2554874255721,1.3507137554034898 L549.2554874255721,1.3507137554034898 Z" style="stroke:#000000;stroke-width:0;" qs:layer="0"/>
        <!-- Polilinha -->
        <path d="M590.2554874255721,130.35071375540355 C590.2554874255721,119.30501875940355 599.2097924295722,110.35071375540355 610.2554874255721,110.35071375540355 C621.3011824215721,110.35071375540355 630.2554874255721,119.30501875940355 630.2554874255721,130.35071375540355 C630.2554874255721,141.39640875140356 621.3011824215721,150.35071375540355 610.2554874255721,150.35071375540355 C599.2097924295722,150.35071375540355 590.2554874255721,141.39640875140356 590.2554874255721,130.35071375540355" style="stroke:#ff0000;stroke-width:0.25;" qs:layer="Corte 3"/>
        <!-- Polilinha -->
        <path d="M654.2554874255721,130.3507137554036 C654.2554874255721,119.30501875940361 663.2097924295722,110.3507137554036 674.2554874255721,110.3507137554036 C685.3011824215721,110.3507137554036 694.2554874255721,119.30501875940361 694.2554874255721,130.3507137554036 C694.2554874255721,141.3964087514036 685.3011824215721,150.3507137554036 674.2554874255721,150.3507137554036 C663.2097924295722,150.3507137554036 654.2554874255721,141.3964087514036 654.2554874255721,130.3507137554036" style="stroke:#ff0000;stroke-width:0.25;" qs:layer="Corte 3"/>
        <!-- Polilinha -->
        <path d="M656.205362633818,50.55071375540382 L656.205362633818,48.55071375540382" style="stroke:#ff0000;stroke-width:0.25;" qs:layer="Corte 3"/>
        <!-- Polilinha -->
        <path d="M669.2554874255723,88.55071375540348 L669.2554874255723,86.55071375540348" style="stroke:#ff0000;stroke-width:0.25;" qs:layer="Corte 3"/>
        <!-- Polilinha -->
        <path d="M647.2053626338179,50.55071375540379 L647.2053626338179,48.55071375540379" style="stroke:#ff0000;stroke-width:0.25;" qs:layer="Corte 3"/>
        <!-- Polilinha -->
        <path d="M660.2554874255723,88.55071375540345 L660.2554874255723,86.55071375540345" style="stroke:#ff0000;stroke-width:0.25;" qs:layer="Corte 3"/>
        <!-- Polilinha -->
        <path d="M638.2053626338179,50.55071375540379 L638.2053626338179,48.55071375540379" style="stroke:#ff0000;stroke-width:0.25;" qs:layer="Corte 3"/>
        <!-- Polilinha -->
        <path d="M651.2554874255721,88.55071375540345 L651.2554874255721,86.55071375540345" style="stroke:#ff0000;stroke-width:0.25;" qs:layer="Corte 3"/>
        <!-- Polilinha -->
        <path d="M611.2053626338179,50.550713755403706 L611.2053626338179,48.550713755403706" style="stroke:#ff0000;stroke-width:0.25;" qs:layer="Corte 3"/>
        <!-- Polilinha -->
        <path d="M624.255487425572,88.55071375540336 L624.255487425572,86.55071375540336" style="stroke:#ff0000;stroke-width:0.25;" qs:layer="Corte 3"/>
        <!-- Polilinha -->
        <path d="M602.2053626338178,50.55071375540368 L602.2053626338178,48.55071375540368" style="stroke:#ff0000;stroke-width:0.25;" qs:layer="Corte 3"/>
        <!-- Polilinha -->
        <path d="M615.255487425572,88.55071375540334 L615.255487425572,86.55071375540334" style="stroke:#ff0000;stroke-width:0.25;" qs:layer="Corte 3"/>
        <!-- Polilinha -->
        <path d="M629.2053626338179,50.55071375540376 L629.2053626338179,48.55071375540376" style="stroke:#ff0000;stroke-width:0.25;" qs:layer="Corte 3"/>
        <!-- Polilinha -->
        <path d="M642.2554874255721,88.55071375540342 L642.2554874255721,86.55071375540342" style="stroke:#ff0000;stroke-width:0.25;" qs:layer="Corte 3"/>
        <!-- Polilinha -->
        <path d="M620.2053626338179,50.550713755403734 L620.2053626338179,48.550713755403734" style="stroke:#ff0000;stroke-width:0.25;" qs:layer="Corte 3"/>
        <!-- Polilinha -->
        <path d="M633.2554874255721,88.5507137554034 L633.2554874255721,86.5507137554034" style="stroke:#ff0000;stroke-width:0.25;" qs:layer="Corte 3"/>
        <!-- Polilinha -->
        <path d="M579.2554874255721,161.35071375540355 L569.2554874255721,161.35071375540355 L569.2554874255721,171.35071375540355 L579.2554874255721,171.35071375540355 Z" style="stroke:#000000;stroke-width:0;" qs:layer="0"/>
        <!-- Polilinha -->
        <path d="M821.2554874255721,130.35071375540352 C821.2554874255721,147.4715409992035 807.3763146693722,161.35071375540352 790.2554874255721,161.35071375540352 C773.1346601817721,161.35071375540352 759.2554874255721,147.4715409992035 759.2554874255721,130.35071375540352 C759.2554874255721,113.22988651160352 773.1346601817721,99.35071375540352 790.2554874255721,99.35071375540352 C807.3763146693722,99.35071375540352 821.2554874255721,113.22988651160352 821.2554874255721,130.35071375540352" style="stroke:#ff7f00;stroke-width:0.25;" qs:layer="Corte 4"/>
        <!-- Polilinha -->
        <path d="M885.2554874255721,130.35071375540352 C885.2554874255721,147.4715409992035 871.3763146693722,161.35071375540352 854.2554874255721,161.35071375540352 C837.1346601817721,161.35071375540352 823.2554874255721,147.4715409992035 823.2554874255721,130.35071375540352 C823.2554874255721,113.22988651160352 837.1346601817721,99.35071375540352 854.2554874255721,99.35071375540352 C871.3763146693722,99.35071375540352 885.2554874255721,113.22988651160352 885.2554874255721,130.35071375540352" style="stroke:#ff7f00;stroke-width:0.25;" qs:layer="Corte 4"/>
        <!-- Polilinha -->
        <path d="M856.2605424066038,86.55071375540332 L858.2554874255723,86.55071375540331 L858.2554874255723,88.55071375540331 L856.2554874255723,88.55071375540362 L856.2554874255723,91.55071375540362 L854.2554874255723,91.55071375540362 L854.2554874255723,94.55071375540362 L856.2554874255723,94.55071375540362 L856.2554874255723,97.3507137554036 L851.2554874255723,97.35071375540362 L851.2554874255723,88.55071375540328 L847.2554874255723,88.55071375540359 L847.2554874255723,91.55071375540359 L845.2554874255723,91.55071375540359 L845.2554874255723,94.55071375540359 L847.2554874255723,94.55071375540359 L847.2554874255723,97.35071375540358 L842.2554874255723,97.35071375540358 L842.2554874255723,88.55071375540325 L838.2554874255723,88.55071375540359 L838.2554874255723,91.55071375540359 L836.2554874255721,91.55071375540359 L836.2554874255721,94.55071375540359 L838.2554874255723,94.55071375540359 L838.2554874255723,97.35071375540358 L833.2554874255723,97.35071375540358 L833.2554874255721,88.55071375540325 L829.2554874255721,88.55071375540356 L829.2554874255721,91.55071375540356 L827.2554874255721,91.55071375540356 L827.2554874255721,94.55071375540356 L829.2554874255721,94.55071375540356 L829.2554874255721,107.35071375540355 L824.2554874255721,107.35071375540355 L824.2554874255721,88.55071375540322 L820.2554874255721,88.55071375540354 L820.2554874255721,91.55071375540354 L818.2554874255721,91.55071375540354 L818.2554874255721,94.55071375540354 L820.2554874255721,94.55071375540354 L820.2554874255721,107.35071375540352 L815.2554874255721,107.35071375540352 L815.2554874255721,88.5507137554032 L811.2554874255721,88.5507137554035 L811.2554874255721,91.5507137554035 L809.255487425572,91.5507137554035 L809.255487425572,94.5507137554035 L811.2554874255721,94.5507137554035 L811.2554874255721,97.35071375540349 L806.2554874255721,97.35071375540349 L806.255487425572,88.55071375540317 L802.255487425572,88.55071375540348 L802.255487425572,91.55071375540348 L800.255487425572,91.55071375540348 L800.255487425572,94.55071375540348 L802.255487425572,94.55071375540348 L802.255487425572,97.35071375540346 L797.255487425572,97.35071375540346 L797.255487425572,88.55071375540314 L793.255487425572,88.55071375540348 L793.255487425572,91.55071375540348 L791.255487425572,91.55071375540348 L791.255487425572,94.55071375540348 L793.255487425572,94.55071375540348 L793.255487425572,97.35071375540346 L788.255487425572,97.35071375540346 L788.255487425572,88.55071375540314 L786.255487425572,88.55071375540314 L786.255487425572,86.55071375540314 L788.2605424066035,86.55071375540304 L788.260660977849,86.54618290469261 C788.0718463476372,79.31615190204495 785.6577878622504,72.64016266127292 781.6781368795527,67.17786654024054 L781.6760578409318,67.18116524920197 C778.011414453014,62.549238823320906 775.6825965691752,56.81244131851351 775.271426122762,50.55928636626164 L773.2053626338177,50.55071375540348 L773.2053626338177,48.55071375540348 L775.2053626338177,48.55071375540348 L775.2053626338177,39.750713755403495 L780.2053626338177,39.750713755403495 L780.2053626338177,42.55071375540348 L778.2053626338177,42.55071375540348 L778.2053626338177,45.55071375540348 L780.2053626338177,45.55071375540348 L780.2053626338177,48.55071375540348 L784.2053626338178,48.55071375540348 L784.2053626338178,39.750713755403495 L789.2053626338178,39.750713755403495 L789.2053626338178,42.55071375540348 L787.2053626338178,42.55071375540348 L787.2053626338178,45.55071375540348 L789.2053626338178,45.55071375540348 L789.2053626338178,48.55071375540348 L793.2053626338179,48.55071375540351 L793.2053626338179,39.750713755403524 L798.2053626338179,39.750713755403524 L798.2053626338179,42.55071375540351 L796.2053626338179,42.55071375540351 L796.2053626338179,45.55071375540351 L798.2053626338179,45.55071375540351 L798.2053626338179,48.55071375540351 L802.2053626338179,48.550713755403535 L802.2053626338179,29.750713755403247 L807.2053626338179,29.750713755403247 L807.2053626338179,42.550713755403535 L805.2053626338179,42.550713755403535 L805.2053626338179,45.550713755403535 L807.2053626338179,45.550713755403535 L807.2053626338179,48.550713755403535 L811.2053626338179,48.550713755403564 L811.2053626338179,29.750713755403275 L816.2053626338179,29.750713755403282 L816.2053626338179,42.550713755403564 L814.2053626338179,42.550713755403564 L814.2053626338179,45.550713755403564 L816.2053626338179,45.550713755403564 L816.2053626338179,48.550713755403564 L820.2053626338179,48.55071375540359 L820.2053626338179,39.75071375540361 L825.2053626338179,39.75071375540361 L825.2053626338179,42.55071375540359 L823.2053626338179,42.55071375540359 L823.2053626338179,45.55071375540359 L825.2053626338179,45.55071375540359 L825.2053626338179,48.55071375540359 L829.2053626338179,48.55071375540359 L829.2053626338179,39.75071375540361 L834.2053626338179,39.75071375540361 L834.2053626338179,42.55071375540359 L832.2053626338179,42.55071375540359 L832.2053626338179,45.55071375540359 L834.2053626338179,45.55071375540359 L834.2053626338179,48.55071375540359 L838.205362633818,48.55071375540362 L838.205362633818,39.75071375540364 L843.205362633818,39.75071375540364 L843.205362633818,42.55071375540362 L841.205362633818,42.55071375540362 L841.205362633818,45.55071375540362 L843.205362633818,45.55071375540362 L843.205362633818,48.55071375540362 L845.205362633818,48.55071375540362 L845.205362633818,50.55071375540362 L843.2719919655697,50.55071375540368 L843.2714261227625,50.559286366261766 C843.6843967416685,56.81697876649125 846.0129162083966,62.551247288142974 849.6760578409315,67.18116524920153 L849.6781368795524,67.17786654024015 C853.6587389938876,72.64171177522309 856.0727948853294,79.31901830873744 856.2606609778494,86.54618290469281" style="stroke:#ff7f00;stroke-width:0.25;" qs:layer="Corte 4"/>
        <!-- Polilinha -->
        <path d="M729.2554874255721,11.35071375540349 L739.2554874255721,11.35071375540349 L739.2554874255721,1.3507137554034898 L729.2554874255721,1.3507137554034898 Z" style="stroke:#000000;stroke-width:0;" qs:layer="0"/>
        <!-- Polilinha -->
        <path d="M759.2554874255721,161.3507137554036 L749.2554874255721,161.3507137554036 L749.2554874255721,171.3507137554036 L759.2554874255721,171.3507137554036 Z" style="stroke:#000000;stroke-width:0;" qs:layer="0"/>
        <!-- Polilinha -->
        <path d="M909.2554874255721,11.350713755403547 L919.2554874255721,11.350713755403547 L919.2554874255721,1.3507137554035467 L909.2554874255721,1.3507137554035467 Z" style="stroke:#000000;stroke-width:0;" qs:layer="0"/>
    </g>
</svg>
